<svg xmlns="http://www.w3.org/2000/svg" width="256" height="256" viewBox="0 0 256 256">
<g>
<path d="M 221.79 235.28 C219.27,236.87 212.37,237.00 128.16,237.00 C48.57,237.00 37.09,236.81 36.00,235.50 C35.32,234.68 34.39,234.00 33.94,234.00 C32.58,234.00 24.00,225.78 24.00,224.47 C24.00,223.80 23.33,222.68 22.50,222.00 C21.19,220.91 21.00,209.42 21.00,129.70 C21.00,61.26 21.30,37.82 22.20,35.31 C22.93,33.31 24.52,31.50 26.20,30.75 C27.74,30.07 29.00,29.17 29.00,28.76 C29.00,27.44 32.94,24.00 34.44,24.00 C35.23,24.00 36.16,23.55 36.50,23.00 C37.35,21.62 219.65,21.62 220.50,23.00 C220.84,23.55 221.75,24.00 222.51,24.00 C223.28,24.00 225.90,26.02 228.33,28.49 C229.93,30.11 231.20,31.07 232.21,32.25 C236.06,36.76 236.05,44.55 236.01,105.55 C236.01,112.60 236.00,120.35 236.00,128.88 C236.00,213.58 235.88,220.07 234.25,223.15 C233.29,224.98 231.60,227.27 230.50,228.25 C229.40,229.23 227.60,230.83 226.50,231.80 C225.40,232.77 223.28,234.34 221.79,235.28 ZM 57.50 230.02 C59.70,230.49 66.00,230.64 71.50,230.33 C89.72,229.33 116.02,229.09 124.70,229.85 C134.11,230.68 136.00,229.94 136.00,225.43 C136.00,223.99 136.58,223.00 137.43,223.00 C139.65,223.00 141.87,225.76 141.33,227.85 C140.59,230.67 144.10,231.14 156.62,229.89 C168.37,228.72 179.82,228.59 184.32,229.57 C186.81,230.12 193.00,228.50 193.00,227.31 C193.00,227.06 192.31,226.16 191.46,225.32 C190.07,223.93 190.10,223.65 191.70,222.48 C192.90,221.60 194.04,221.49 195.24,222.13 C197.50,223.34 197.51,225.72 195.25,226.31 C194.29,226.56 196.65,226.77 200.50,226.77 C204.35,226.77 206.66,226.55 205.63,226.29 C203.92,225.85 203.97,225.68 206.13,224.45 C207.43,223.70 209.51,222.63 210.75,222.07 C211.99,221.51 213.00,220.37 213.00,219.55 C213.00,218.35 211.69,218.09 206.44,218.24 C201.92,218.38 199.64,218.03 199.07,217.12 C198.63,216.39 196.74,215.49 194.88,215.11 C192.47,214.62 191.41,213.81 191.19,212.30 C190.91,210.36 191.24,210.22 194.94,210.72 C198.15,211.15 199.00,210.94 199.00,209.74 C199.00,207.92 201.07,207.00 205.17,207.00 C208.11,207.00 208.16,206.92 207.51,203.08 C206.91,199.52 207.13,198.96 209.93,196.90 C211.98,195.38 213.00,193.77 213.00,192.03 C213.00,190.61 213.70,188.44 214.57,187.21 C215.99,185.18 215.99,184.68 214.57,181.83 C212.80,178.29 212.49,174.00 214.00,174.00 C214.55,174.00 215.00,172.41 215.00,170.47 C215.00,168.25 215.56,166.72 216.50,166.36 C217.67,165.91 218.00,163.93 218.00,157.39 C218.00,150.39 218.26,149.00 219.59,149.00 C222.32,149.00 224.93,153.19 224.97,157.63 C224.99,159.99 225.62,162.27 226.46,162.96 C227.72,164.01 227.98,161.68 228.45,145.34 C229.04,124.29 229.21,113.10 228.99,109.75 C228.90,108.51 229.15,92.54 229.54,74.27 C230.18,44.11 230.10,40.98 228.62,40.41 C227.73,40.07 226.99,38.82 226.97,37.64 C226.93,35.22 224.81,32.00 223.25,32.00 C222.68,32.00 221.95,31.33 221.64,30.50 C221.32,29.67 220.34,29.00 219.46,29.00 C218.58,29.00 217.18,28.33 216.36,27.50 C215.05,26.19 203.87,26.00 128.00,26.00 C52.13,26.00 40.95,26.19 39.64,27.50 C38.82,28.33 37.42,29.00 36.54,29.00 C35.66,29.00 34.68,29.67 34.36,30.50 C34.05,31.33 33.32,32.00 32.75,32.00 C31.17,32.00 29.07,35.24 29.03,37.75 C29.01,39.07 28.38,40.00 27.50,40.00 C26.18,40.00 26.00,46.82 26.00,95.36 C26.00,151.67 26.46,159.87 29.76,163.04 C30.72,163.96 33.65,167.01 36.28,169.81 C38.91,172.62 41.61,174.70 42.28,174.44 C43.64,173.91 47.46,167.92 47.18,166.75 C47.08,166.34 47.35,166.00 47.79,166.00 C49.21,166.00 48.90,162.17 47.43,161.61 C44.83,160.62 45.74,157.16 48.68,156.82 C50.62,156.59 51.57,155.75 52.08,153.82 C52.59,151.90 52.44,151.28 51.56,151.61 C50.70,151.94 50.47,151.17 50.78,149.04 C51.03,147.37 51.80,146.00 52.51,146.00 C53.21,146.00 54.05,145.32 54.36,144.50 C54.68,143.68 55.51,143.00 56.22,143.00 C57.18,143.00 57.50,140.23 57.50,131.75 C57.50,123.49 57.83,120.47 58.75,120.38 C59.44,120.31 60.34,120.14 60.75,120.01 C61.16,119.87 61.94,119.85 62.47,119.96 C63.01,120.06 62.60,119.21 61.57,118.07 C60.52,116.92 60.20,116.00 60.85,116.00 C61.48,116.00 62.00,116.45 62.00,117.00 C62.00,118.88 64.19,118.00 64.74,115.90 C65.18,114.19 65.82,113.91 68.17,114.38 C70.61,114.87 71.22,114.56 72.04,112.41 C73.20,109.36 75.52,106.85 76.38,107.71 C76.91,108.24 77.35,106.75 77.19,104.96 C77.07,103.64 82.52,104.16 84.14,105.63 C85.81,107.14 86.14,107.14 88.44,105.63 C90.84,104.06 91.04,104.11 93.97,106.97 C95.63,108.60 97.00,110.40 97.00,110.97 C97.00,111.53 97.68,112.00 98.50,112.00 C99.43,112.00 100.00,112.94 100.00,114.50 C100.00,115.88 100.49,117.00 101.08,117.00 C102.54,117.00 101.33,136.03 99.70,138.67 C99.35,139.24 99.71,140.56 100.50,141.60 C102.54,144.30 102.33,145.81 99.85,146.18 C96.59,146.67 95.27,149.42 97.32,151.46 C99.02,153.16 100.22,156.64 100.41,160.42 C100.54,163.10 104.34,170.22 106.62,172.07 C107.73,172.97 108.10,173.03 107.63,172.25 C107.21,171.54 107.38,171.00 108.03,171.00 C108.67,171.00 109.41,171.87 109.69,172.93 C110.15,174.69 110.98,174.83 119.02,174.50 C124.22,174.28 129.03,173.52 130.74,172.63 C135.24,170.31 145.41,170.99 148.02,173.79 C149.15,175.01 150.93,176.00 151.98,176.00 C153.03,176.00 154.18,176.48 154.54,177.07 C154.91,177.66 155.83,177.89 156.60,177.60 C157.54,177.24 158.00,177.79 158.01,179.28 C158.04,183.34 159.14,185.74 161.58,187.04 C164.94,188.84 165.56,187.70 163.54,183.45 C161.93,180.05 162.07,174.81 163.77,175.16 C164.72,175.36 167.79,174.26 171.33,172.45 C172.89,171.65 174.91,171.02 175.83,171.04 C177.93,171.08 183.01,173.92 181.08,173.96 C180.30,173.98 179.91,174.24 180.21,174.54 C180.50,174.84 182.27,174.19 184.12,173.10 C185.98,172.00 188.85,171.13 190.50,171.17 C192.15,171.20 194.62,170.80 196.00,170.29 C200.08,168.77 201.85,169.66 201.01,172.80 C199.68,177.77 198.77,180.00 198.07,180.00 C197.69,180.00 197.26,182.13 197.13,184.73 C196.90,189.24 193.80,196.00 191.97,196.00 C191.50,196.00 190.52,194.77 189.80,193.28 C187.72,188.92 182.21,188.39 161.56,190.58 C156.64,191.10 155.41,190.91 154.38,189.50 C152.93,187.52 150.78,188.42 151.18,190.84 C151.66,193.75 150.17,195.12 148.01,193.77 C146.49,192.82 145.75,192.90 144.31,194.16 C143.31,195.03 140.70,195.97 138.50,196.26 C136.30,196.55 134.05,196.95 133.50,197.14 C131.84,197.74 131.39,195.77 133.00,194.98 C136.53,193.25 141.94,192.00 145.94,192.00 C149.57,192.00 150.06,191.77 149.05,190.56 C148.40,189.77 146.43,188.82 144.68,188.45 C142.93,188.07 140.91,187.29 140.18,186.70 C139.45,186.12 135.77,185.60 132.00,185.56 C128.23,185.52 124.81,185.15 124.41,184.74 C122.70,183.03 119.43,184.14 117.82,186.96 C115.50,191.04 109.48,193.54 105.50,192.08 C103.44,191.33 102.40,191.31 102.16,192.03 C101.97,192.60 100.79,194.29 99.54,195.79 C98.29,197.28 96.96,199.51 96.57,200.75 C96.18,201.99 95.39,203.00 94.82,203.00 C94.24,203.00 94.48,204.08 95.36,205.43 C96.63,207.36 96.73,208.47 95.87,210.94 C95.28,212.64 95.04,214.66 95.34,215.44 C95.83,216.73 99.70,218.86 104.33,220.39 C106.18,221.01 106.29,223.14 104.47,223.17 C103.94,223.17 101.98,223.82 100.13,224.59 C98.27,225.37 94.16,226.00 90.98,226.00 C86.78,226.00 85.06,226.41 84.64,227.50 C84.21,228.60 82.47,229.00 78.03,229.00 C74.71,229.00 72.00,228.59 72.00,228.08 C72.00,227.57 68.74,226.93 64.75,226.64 C53.97,225.88 49.21,224.96 47.92,223.40 C47.28,222.63 45.32,222.00 43.57,222.00 C41.82,222.00 39.51,221.32 38.44,220.50 C36.53,219.03 36.53,218.97 38.41,217.53 C40.25,216.10 40.24,216.02 37.91,215.16 C34.44,213.88 31.00,215.71 31.00,218.83 C31.00,222.37 33.75,225.00 37.43,225.00 C39.15,225.00 41.44,225.61 42.53,226.35 C43.61,227.10 46.53,228.03 49.00,228.43 C51.47,228.83 55.30,229.54 57.50,230.02 ZM 42.52 216.03 C43.66,217.87 51.56,217.14 53.48,215.02 C54.46,213.94 55.67,213.30 56.17,213.61 C56.68,213.92 57.07,211.16 57.07,207.33 C57.06,203.57 57.16,199.16 57.28,197.52 C57.47,194.93 56.78,194.05 52.00,190.80 C48.97,188.74 45.60,187.04 44.50,187.03 C43.40,187.01 40.74,185.93 38.60,184.63 C36.45,183.33 33.92,182.47 32.97,182.72 C31.97,182.98 30.63,182.31 29.82,181.15 C26.95,177.05 25.91,180.04 26.21,191.58 C26.49,202.01 26.60,202.51 28.73,202.82 C29.96,202.99 31.90,204.45 33.05,206.07 C34.20,207.68 36.04,209.00 37.13,209.00 C39.88,209.00 43.18,207.11 42.47,205.95 C42.15,205.43 42.23,204.44 42.67,203.75 C43.16,202.96 43.70,203.98 44.14,206.50 C44.61,209.29 44.38,211.19 43.37,212.78 C42.57,214.03 42.19,215.49 42.52,216.03 ZM 79.06 135.47 C82.17,137.17 90.07,137.35 93.70,135.81 C98.42,133.80 99.95,131.10 99.98,124.78 C100.00,119.57 99.73,118.86 97.00,116.84 C95.35,115.62 94.00,114.20 94.00,113.67 C94.00,111.40 90.18,110.06 83.58,110.03 C76.53,110.00 73.00,111.54 73.00,114.65 C73.00,115.39 72.55,116.00 72.00,116.00 C71.44,116.00 71.00,118.68 71.00,122.05 C71.00,127.31 71.37,128.50 73.81,131.12 C75.36,132.78 77.72,134.73 79.06,135.47 ZM 74.48 218.25 C79.58,219.73 82.94,219.50 84.23,217.59 C84.64,216.99 84.98,213.07 84.98,208.88 C85.00,201.44 84.91,201.15 81.15,196.92 C77.30,192.58 77.29,192.58 74.65,194.31 C72.73,195.57 72.00,196.90 72.00,199.12 C72.00,202.50 69.29,209.00 67.89,209.00 C66.53,209.00 66.83,214.62 68.25,215.78 C68.94,216.35 71.74,217.46 74.48,218.25 ZM 161.89 210.37 C160.16,210.72 153.02,211.00 146.01,211.00 C134.78,211.00 132.97,210.76 130.73,209.00 C129.33,207.90 127.47,207.00 126.59,207.00 C125.72,207.00 125.00,206.58 125.00,206.07 C125.00,205.22 127.95,205.29 141.22,206.48 C143.82,206.71 146.21,206.47 146.53,205.95 C147.31,204.69 152.71,204.73 153.50,206.00 C153.84,206.55 156.06,207.00 158.44,207.00 C164.00,207.00 166.51,209.45 161.89,210.37 ZM 77.81 184.75 C78.08,185.60 80.61,186.00 85.77,186.00 C93.37,186.00 93.95,185.65 89.77,183.57 C88.35,182.87 87.46,181.48 87.40,179.87 C87.22,175.04 84.13,173.23 82.08,176.75 C81.52,177.71 81.05,178.05 81.03,177.50 C81.01,176.95 80.19,178.07 79.20,180.00 C78.21,181.93 77.58,184.06 77.81,184.75 ZM 210.32 227.54 C209.04,228.82 209.22,229.00 211.81,229.00 C215.46,229.00 221.99,226.35 223.75,224.15 C225.78,221.61 227.00,218.17 226.41,216.63 C225.99,215.54 224.99,215.44 221.72,216.17 C219.43,216.69 217.34,217.33 217.08,217.59 C216.81,217.85 217.91,219.29 219.52,220.78 C221.94,223.02 222.14,223.54 220.72,223.82 C219.77,224.00 219.00,224.47 219.00,224.87 C219.00,225.27 217.38,225.70 215.39,225.83 C213.40,225.97 211.12,226.74 210.32,227.54 ZM 69.99 108.03 C68.65,111.26 67.20,111.71 65.25,109.50 C63.69,107.73 63.63,106.00 65.14,106.00 C65.76,106.00 67.31,104.88 68.59,103.50 C70.85,101.06 74.00,100.12 74.00,101.88 C74.00,102.36 73.37,103.28 72.61,103.91 C71.84,104.55 70.66,106.40 69.99,108.03 ZM 170.42 221.39 C167.80,222.40 162.00,221.52 162.00,220.13 C162.00,218.66 164.46,217.00 166.62,217.00 C171.45,217.00 174.05,220.00 170.42,221.39 ZM 188.06 224.90 C187.38,226.16 185.76,226.72 182.42,226.85 C178.41,227.00 177.91,226.81 178.95,225.56 C180.46,223.74 186.61,221.64 187.98,222.49 C188.65,222.90 188.67,223.74 188.06,224.90 ZM 121.45 198.84 C120.05,199.48 117.98,200.00 116.85,200.00 C115.03,200.00 115.17,199.64 118.05,196.95 C121.27,193.94 124.00,193.65 124.00,196.31 C124.00,197.06 122.85,198.20 121.45,198.84 ZM 214.67 207.33 C215.80,208.47 217.76,208.07 218.32,206.60 C219.04,204.72 216.61,201.51 215.15,202.41 C213.90,203.18 213.60,206.26 214.67,207.33 ZM 72.00 139.47 C72.00,140.50 72.97,141.00 75.00,141.00 C78.28,141.00 78.82,139.93 76.51,138.01 C74.70,136.50 72.00,137.37 72.00,139.47 ZM 85.36 169.50 C86.02,171.22 87.59,171.47 88.51,169.99 C89.32,168.67 88.14,165.00 86.90,165.00 C85.58,165.00 84.66,167.68 85.36,169.50 ZM 46.00 166.53 C46.00,167.89 45.78,169.00 45.50,169.00 C45.22,169.00 45.00,168.52 45.00,167.94 C45.00,167.36 44.55,167.16 44.00,167.50 C43.45,167.84 43.00,167.46 43.00,166.67 C43.00,165.87 43.67,164.95 44.50,164.64 C45.58,164.22 46.00,164.75 46.00,166.53 ZM 225.00 210.61 C225.00,211.37 225.68,212.00 226.50,212.00 C227.33,212.00 228.00,211.11 228.00,210.03 C228.00,208.69 227.52,208.25 226.50,208.64 C225.68,208.95 225.00,209.84 225.00,210.61 ZM 225.02 173.25 C225.01,173.66 225.45,174.00 226.00,174.00 C226.55,174.00 226.99,172.99 226.98,171.75 C226.97,169.93 226.78,169.79 226.00,171.00 C225.47,171.82 225.02,172.84 225.02,173.25 ZM 66.00 155.47 C66.00,156.36 66.59,156.71 67.49,156.36 C68.32,156.05 68.74,155.39 68.44,154.90 C67.56,153.48 66.00,153.85 66.00,155.47 Z" fill="rgb(4,44,50)"/>
<path d="M 224.00 242.50 C224.00,243.82 212.79,244.00 129.12,244.00 C46.01,244.00 34.09,243.81 33.00,242.50 C32.32,241.68 31.02,241.00 30.13,240.99 C28.72,240.99 24.07,236.93 17.75,230.20 C16.79,229.17 16.00,227.58 16.00,226.67 C16.00,225.75 15.32,225.00 14.50,225.00 C13.18,225.00 13.00,213.61 13.00,128.50 C13.00,52.83 13.26,32.05 14.23,32.25 C14.90,32.39 15.60,31.58 15.77,30.45 C15.94,29.32 18.32,26.04 21.04,23.15 C23.77,20.26 26.00,17.47 26.00,16.95 C26.00,16.43 27.58,16.00 29.50,16.00 C31.94,16.00 33.00,15.55 33.00,14.50 C33.00,13.18 44.28,13.00 128.50,13.00 C212.72,13.00 224.00,13.18 224.00,14.50 C224.00,15.32 224.88,16.00 225.95,16.00 C227.02,16.00 229.11,17.12 230.59,18.50 C232.08,19.88 233.90,21.00 234.65,21.00 C235.39,21.00 236.00,21.67 236.00,22.50 C236.00,23.33 236.45,24.00 237.00,24.00 C237.55,24.00 238.00,24.63 238.00,25.39 C238.00,26.16 238.64,27.03 239.43,27.33 C240.21,27.64 241.00,29.15 241.18,30.69 C241.36,32.28 242.04,33.39 242.75,33.25 C243.74,33.05 244.00,52.63 244.00,128.50 C244.00,212.72 243.82,224.00 242.50,224.00 C241.45,224.00 241.00,225.06 241.00,227.50 C241.00,229.94 240.55,231.00 239.50,231.00 C238.68,231.00 238.00,231.48 238.00,232.07 C238.00,233.45 235.46,236.00 234.09,236.00 C233.52,236.00 232.31,237.12 231.41,238.50 C230.29,240.21 228.86,241.00 226.88,241.00 C224.99,241.00 224.00,241.51 224.00,242.50 ZM 221.79 235.28 C223.28,234.34 225.40,232.77 226.50,231.80 C227.60,230.83 229.40,229.23 230.50,228.25 C231.60,227.27 233.29,224.98 234.25,223.15 C235.88,220.07 236.00,213.58 236.00,128.88 C236.00,120.35 236.01,112.60 236.01,105.55 C236.05,44.55 236.06,36.76 232.21,32.25 C231.20,31.07 229.93,30.11 228.33,28.49 C225.90,26.02 223.28,24.00 222.51,24.00 C221.75,24.00 220.84,23.55 220.50,23.00 C219.65,21.62 37.35,21.62 36.50,23.00 C36.16,23.55 35.23,24.00 34.44,24.00 C32.94,24.00 29.00,27.44 29.00,28.76 C29.00,29.17 27.74,30.07 26.20,30.75 C24.52,31.50 22.93,33.31 22.20,35.31 C21.30,37.82 21.00,61.26 21.00,129.70 C21.00,209.42 21.19,220.91 22.50,222.00 C23.33,222.68 24.00,223.80 24.00,224.47 C24.00,225.78 32.58,234.00 33.94,234.00 C34.39,234.00 35.32,234.68 36.00,235.50 C37.09,236.81 48.57,237.00 128.16,237.00 C212.37,237.00 219.27,236.87 221.79,235.28 ZM 43.00 159.50 C43.00,161.06 43.57,162.00 44.50,162.00 C45.31,162.00 45.84,161.29 45.97,160.10 C46.14,160.73 46.61,161.30 47.43,161.61 C48.90,162.17 49.21,166.00 47.79,166.00 C47.35,166.00 47.08,166.34 47.18,166.75 C47.46,167.92 43.64,173.91 42.28,174.44 C41.61,174.70 38.91,172.62 36.28,169.81 C33.65,167.01 30.72,163.96 29.76,163.04 C26.46,159.87 26.00,151.67 26.00,95.36 C26.00,46.82 26.18,40.00 27.50,40.00 C28.38,40.00 29.01,39.07 29.03,37.75 C29.07,35.24 31.17,32.00 32.75,32.00 C33.32,32.00 34.05,31.33 34.36,30.50 C34.68,29.67 35.66,29.00 36.54,29.00 C37.42,29.00 38.82,28.33 39.64,27.50 C40.95,26.19 52.13,26.00 128.00,26.00 C143.19,26.00 155.78,26.01 166.23,26.03 C164.94,26.15 163.76,26.57 163.45,27.08 C163.08,27.68 160.74,29.04 158.25,30.11 C155.76,31.18 154.01,32.34 154.37,32.70 C155.23,33.57 151.01,38.00 149.33,38.00 C148.60,38.00 148.00,38.87 148.00,39.94 C148.00,41.01 147.54,42.17 146.97,42.52 C144.65,43.95 146.34,50.45 150.19,54.89 C152.29,57.31 154.00,59.93 154.00,60.73 C154.00,63.48 149.73,65.94 145.00,65.89 C139.14,65.84 135.23,63.47 131.38,57.64 C127.84,52.28 122.37,49.00 116.98,49.00 C111.73,49.00 106.00,54.42 106.00,59.38 C106.00,63.51 107.23,63.92 111.77,61.32 C114.30,59.87 115.14,59.82 117.85,60.94 C119.58,61.66 121.01,62.98 121.01,63.87 C121.03,65.63 121.98,67.43 126.26,73.86 C128.31,76.93 129.69,78.00 131.61,78.00 C133.03,78.00 135.50,78.77 137.10,79.72 C139.84,81.34 140.00,81.80 140.00,88.09 C140.00,95.85 139.10,97.01 132.92,97.30 C128.92,97.49 128.62,97.31 127.82,94.29 C126.67,89.96 123.53,88.00 117.78,88.00 C115.15,88.00 113.00,88.19 113.00,88.42 C113.00,88.65 112.73,89.54 112.40,90.40 C111.99,91.47 112.61,92.28 114.36,92.95 C115.78,93.49 117.81,95.67 118.93,97.86 C120.04,100.03 122.63,103.20 124.70,104.90 C128.81,108.30 131.69,108.69 139.77,106.96 C145.85,105.65 149.69,106.90 150.59,110.48 C151.45,113.92 149.37,118.60 145.87,121.09 C144.29,122.22 143.00,124.03 143.00,125.11 C143.00,126.20 141.82,128.27 140.39,129.70 C137.93,132.16 137.85,132.55 138.98,136.32 C140.56,141.62 144.99,146.00 148.76,146.00 C152.93,146.00 153.28,145.12 150.42,141.72 C147.11,137.79 147.34,132.66 150.86,132.17 C152.19,131.98 155.98,128.93 159.55,125.17 L 165.89 118.50 L 177.50 118.55 L 177.22 121.52 C176.07,133.70 176.15,134.91 178.15,135.55 C180.88,136.41 182.45,134.78 185.06,128.36 C187.23,123.02 187.25,122.69 185.59,119.89 C183.57,116.46 184.15,113.79 187.29,112.11 C190.36,110.47 195.69,112.75 199.85,117.49 C202.44,120.43 203.00,121.91 202.99,125.78 C202.98,130.22 202.66,130.78 197.74,135.08 C194.86,137.60 191.30,139.97 189.84,140.33 C187.68,140.87 187.05,141.75 186.49,145.03 C186.05,147.67 186.24,149.58 187.03,150.53 C188.96,152.86 190.81,152.26 193.24,148.51 C194.48,146.59 196.22,145.02 197.10,145.01 C197.97,145.01 199.50,144.10 200.50,143.00 C201.50,141.90 203.14,141.00 204.15,141.00 C205.17,141.00 206.00,140.54 206.00,139.97 C206.00,139.40 208.30,136.71 211.12,133.98 L 216.23 129.02 L 215.64 122.76 C214.86,114.46 213.47,105.89 212.58,103.85 C212.18,102.94 209.64,100.33 206.93,98.04 C204.15,95.69 202.00,93.04 202.00,91.94 C202.00,90.87 202.34,89.99 202.75,89.98 C203.16,89.97 205.65,87.95 208.28,85.48 C210.91,83.02 213.76,81.00 214.61,81.00 C215.49,81.00 216.84,82.73 217.73,85.00 C219.12,88.54 219.68,89.00 222.60,89.00 C225.53,89.00 226.02,88.60 226.88,85.48 C227.47,83.34 227.50,80.74 226.95,78.84 C225.69,74.42 217.85,67.75 213.39,67.29 C211.12,67.06 210.07,67.30 210.48,67.96 C211.29,69.27 204.06,75.99 201.84,76.00 C200.16,76.00 192.00,66.63 192.00,64.70 C192.00,64.13 191.31,62.90 190.47,61.97 C189.11,60.46 189.11,60.16 190.47,59.02 C191.31,58.32 192.00,57.00 192.00,56.07 C192.00,54.18 197.22,48.90 201.00,46.96 C202.38,46.26 206.31,43.39 209.74,40.59 C215.36,36.00 215.97,35.13 215.99,31.75 C216.00,26.96 214.02,26.81 209.48,31.25 C205.65,35.00 195.04,41.00 192.23,41.00 C191.18,41.00 186.90,44.12 182.72,47.93 C176.33,53.76 174.37,54.97 170.47,55.56 C166.22,56.19 165.59,56.01 163.09,53.38 C161.58,51.79 159.37,49.72 158.17,48.76 C155.72,46.80 155.24,43.00 157.44,43.00 C158.24,43.00 159.47,42.19 160.19,41.21 C160.91,40.22 163.62,38.08 166.20,36.46 C171.69,33.01 172.35,31.86 170.81,28.49 C170.10,26.93 169.16,26.19 167.60,26.03 C208.11,26.13 215.32,26.46 216.36,27.50 C217.18,28.33 218.58,29.00 219.46,29.00 C220.34,29.00 221.32,29.67 221.64,30.50 C221.95,31.33 222.68,32.00 223.25,32.00 C224.81,32.00 226.93,35.22 226.97,37.64 C226.99,38.82 227.73,40.07 228.62,40.41 C230.10,40.98 230.18,44.11 229.54,74.27 C229.15,92.54 228.90,108.51 228.99,109.75 C229.21,113.10 229.04,124.29 228.45,145.34 C227.98,161.68 227.72,164.01 226.46,162.96 C225.62,162.27 224.99,159.99 224.97,157.63 C224.93,153.19 222.32,149.00 219.59,149.00 C218.26,149.00 218.00,150.39 218.00,157.39 C218.00,163.93 217.67,165.91 216.50,166.36 C217.72,165.89 218.00,163.54 218.00,153.89 C218.00,142.67 217.89,142.00 216.00,142.00 C214.90,142.00 214.00,142.45 214.00,143.00 C214.00,143.55 213.32,144.00 212.50,144.00 C211.67,144.00 211.00,144.89 211.00,146.00 C211.00,147.10 210.55,148.00 210.00,148.00 C209.45,148.00 209.00,149.35 209.00,151.00 C209.00,152.65 208.55,154.00 208.00,154.00 C207.45,154.00 207.00,155.81 207.00,158.03 C207.00,160.69 206.49,162.26 205.50,162.64 C204.68,162.95 204.00,164.29 204.00,165.61 C204.00,166.95 203.41,168.00 202.65,168.00 C201.84,168.00 201.27,169.20 201.22,171.04 C201.22,171.12 201.21,171.20 201.21,171.28 C201.11,169.41 199.33,169.05 196.00,170.29 C194.62,170.80 192.15,171.20 190.50,171.17 C188.85,171.13 185.98,172.00 184.12,173.10 C182.27,174.19 180.50,174.84 180.21,174.54 C179.91,174.24 180.30,173.98 181.08,173.96 C183.01,173.92 177.93,171.08 175.83,171.04 C174.91,171.02 172.89,171.65 171.33,172.45 C167.79,174.26 164.72,175.36 163.77,175.16 C163.16,175.04 162.76,175.62 162.56,176.57 C162.53,175.69 162.52,174.74 162.51,173.71 L 162.50 164.50 L 159.78 164.19 C157.61,163.94 156.95,164.36 156.45,166.34 C156.11,167.70 156.41,169.87 157.12,171.16 C157.82,172.45 158.43,176.07 158.45,179.21 C158.47,181.78 158.62,183.38 159.05,184.51 C158.36,183.19 158.03,181.48 158.01,179.28 C158.00,177.79 157.54,177.24 156.60,177.60 C155.83,177.89 154.91,177.66 154.54,177.07 C154.18,176.48 153.03,176.00 151.98,176.00 C150.93,176.00 149.15,175.01 148.02,173.79 C145.41,170.99 135.24,170.31 130.74,172.63 C129.03,173.52 124.22,174.28 119.02,174.50 C110.98,174.83 110.15,174.69 109.69,172.93 C109.41,171.87 108.67,171.00 108.03,171.00 C107.38,171.00 107.21,171.54 107.63,172.25 C108.10,173.03 107.73,172.97 106.62,172.07 C104.34,170.22 100.54,163.10 100.41,160.42 C100.22,156.64 99.02,153.16 97.32,151.46 C95.27,149.42 96.59,146.67 99.85,146.18 C102.33,145.81 102.54,144.30 100.50,141.60 C99.71,140.56 99.35,139.24 99.70,138.67 C101.08,136.45 102.15,122.61 101.58,118.29 C101.84,119.61 102.00,121.83 102.00,124.50 C102.00,131.62 103.01,134.02 104.44,130.30 C105.26,128.17 104.31,118.81 102.74,113.50 C101.50,109.29 99.86,107.00 98.07,107.00 C97.48,107.00 97.00,106.32 97.00,105.50 C97.00,104.68 96.32,104.00 95.50,104.00 C94.68,104.00 94.00,103.29 94.00,102.43 C94.00,101.39 93.27,100.97 91.83,101.18 C89.65,101.50 87.92,104.00 89.88,104.00 C90.21,104.00 90.77,104.31 91.45,104.81 C90.53,104.33 89.88,104.69 88.44,105.63 C86.14,107.14 85.81,107.14 84.14,105.63 C82.52,104.16 77.07,103.64 77.19,104.96 C77.35,106.75 76.91,108.24 76.38,107.71 C75.52,106.85 73.20,109.36 72.04,112.41 C71.22,114.56 70.61,114.87 68.17,114.38 C65.82,113.91 65.18,114.19 64.74,115.90 C64.19,118.00 62.00,118.88 62.00,117.00 C62.00,116.45 61.48,116.00 60.85,116.00 C60.20,116.00 60.52,116.92 61.57,118.07 C62.60,119.21 63.01,120.06 62.47,119.96 C61.94,119.85 61.16,119.87 60.75,120.01 C60.34,120.14 59.44,120.31 58.75,120.38 C57.83,120.47 57.50,123.49 57.50,131.75 C57.50,135.97 57.42,138.77 57.22,140.53 C56.89,140.20 56.39,140.00 55.83,140.00 C54.83,140.00 54.00,140.68 54.00,141.50 C54.00,142.32 53.33,143.00 52.50,143.00 C51.67,143.00 51.00,143.68 51.00,144.50 C51.00,145.32 50.60,146.00 50.11,146.00 C48.94,146.00 47.83,148.92 48.56,150.09 C49.30,151.30 50.18,151.26 50.65,150.32 C50.61,151.47 50.90,151.87 51.56,151.61 C52.44,151.28 52.59,151.90 52.08,153.82 C51.57,155.75 50.62,156.59 48.68,156.82 C47.31,156.98 46.39,157.81 46.05,158.75 C46.17,157.74 46.55,157.00 47.00,157.00 C47.55,157.00 48.00,155.65 48.00,154.00 C48.00,152.35 47.55,151.00 47.00,151.00 C46.45,151.00 46.00,152.35 46.00,154.00 C43.57,157.00 43.00,157.94 43.00,159.50 ZM 57.50 230.02 C55.30,229.54 51.47,228.83 49.00,228.43 C46.53,228.03 43.61,227.10 42.53,226.35 C41.44,225.61 39.15,225.00 37.43,225.00 C33.75,225.00 31.00,222.37 31.00,218.83 C31.00,215.71 34.44,213.88 37.91,215.16 C40.24,216.02 40.25,216.10 38.41,217.53 C36.53,218.97 36.53,219.03 38.44,220.50 C39.51,221.32 41.82,222.00 43.57,222.00 C45.32,222.00 47.28,222.63 47.92,223.40 C49.21,224.96 53.97,225.88 64.75,226.64 C68.74,226.93 72.00,227.57 72.00,228.08 C72.00,228.59 74.71,229.00 78.03,229.00 C82.47,229.00 84.21,228.60 84.64,227.50 C85.06,226.41 86.78,226.00 90.98,226.00 C94.16,226.00 98.27,225.37 100.13,224.59 C101.98,223.82 103.94,223.17 104.47,223.17 C106.29,223.14 106.18,221.01 104.33,220.39 C99.70,218.86 95.83,216.73 95.34,215.44 C95.04,214.66 95.28,212.64 95.87,210.94 C96.73,208.47 96.63,207.36 95.36,205.43 C94.48,204.08 94.24,203.00 94.82,203.00 C95.39,203.00 96.18,201.99 96.57,200.75 C96.96,199.51 98.29,197.28 99.54,195.79 C100.79,194.29 101.97,192.60 102.16,192.03 C102.40,191.31 103.44,191.33 105.50,192.08 C109.48,193.54 115.50,191.04 117.82,186.96 C119.43,184.14 122.70,183.03 124.41,184.74 C124.81,185.15 128.23,185.52 132.00,185.56 C135.77,185.60 139.45,186.12 140.18,186.70 C140.91,187.29 142.93,188.07 144.68,188.45 C146.43,188.82 148.40,189.77 149.05,190.56 C150.06,191.77 149.57,192.00 145.94,192.00 C141.94,192.00 136.53,193.25 133.00,194.98 C131.39,195.77 131.84,197.74 133.50,197.14 C134.05,196.95 136.30,196.55 138.50,196.26 C140.70,195.97 143.31,195.03 144.31,194.16 C145.75,192.90 146.49,192.82 148.01,193.77 C150.07,195.06 151.52,193.87 151.23,191.23 C151.57,191.69 152.24,192.00 153.00,192.00 C155.13,192.00 155.44,191.29 154.18,189.25 C154.25,189.33 154.31,189.41 154.38,189.50 C155.41,190.91 156.64,191.10 161.56,190.58 C182.21,188.39 187.72,188.92 189.80,193.28 C190.52,194.77 191.50,196.00 191.97,196.00 C193.80,196.00 196.90,189.24 197.13,184.73 C197.15,184.33 197.18,183.95 197.21,183.59 C197.18,183.96 197.15,184.35 197.13,184.75 C197.00,187.36 196.24,190.50 195.45,191.71 C194.65,192.93 194.00,195.07 194.00,196.46 C194.00,198.57 194.47,199.00 196.75,198.98 C198.26,198.98 200.00,198.64 200.60,198.23 C202.33,197.08 204.16,193.06 203.46,191.94 C203.06,191.29 203.77,191.16 205.42,191.57 C207.49,192.09 208.01,191.85 208.03,190.36 C208.05,189.34 208.72,187.63 209.53,186.56 C210.34,185.49 211.00,183.44 211.00,182.01 C211.00,179.93 212.07,176.70 213.12,175.06 C212.81,176.55 213.34,179.37 214.57,181.83 C215.99,184.68 215.99,185.18 214.57,187.21 C213.70,188.44 213.00,190.61 213.00,192.03 C213.00,193.77 211.98,195.38 209.93,196.90 C207.13,198.96 206.91,199.52 207.51,203.08 C208.16,206.92 208.11,207.00 205.17,207.00 C201.07,207.00 199.00,207.92 199.00,209.74 C199.00,210.94 198.15,211.15 194.94,210.72 C191.24,210.22 190.91,210.36 191.19,212.30 C191.41,213.81 192.47,214.62 194.88,215.11 C196.74,215.49 198.63,216.39 199.07,217.12 C199.64,218.03 201.92,218.38 206.44,218.24 C211.69,218.09 213.00,218.35 213.00,219.55 C213.00,220.37 211.99,221.51 210.75,222.07 C209.51,222.63 207.43,223.70 206.13,224.45 C203.97,225.68 203.92,225.85 205.63,226.29 C206.66,226.55 204.35,226.77 200.50,226.77 C196.65,226.77 194.29,226.56 195.25,226.31 C197.51,225.72 197.50,223.34 195.24,222.13 C194.04,221.49 192.90,221.60 191.70,222.48 C190.10,223.65 190.07,223.93 191.46,225.32 C192.31,226.16 193.00,227.06 193.00,227.31 C193.00,228.50 186.81,230.12 184.32,229.57 C179.82,228.59 168.37,228.72 156.62,229.89 C144.10,231.14 140.59,230.67 141.33,227.85 C141.73,226.33 140.65,224.44 139.17,223.53 C140.97,223.87 142.17,223.47 143.36,222.16 C144.98,220.36 144.99,220.13 143.42,218.56 C142.50,217.64 141.16,217.11 140.44,217.38 C139.73,217.66 138.61,217.23 137.95,216.44 C136.13,214.25 134.67,214.71 132.75,218.09 C130.42,222.18 130.54,223.89 133.25,224.91 C134.89,225.53 135.59,225.37 135.84,224.32 C135.94,223.86 136.18,223.56 136.59,223.41 C136.22,223.83 136.00,224.54 136.00,225.43 C136.00,229.94 134.11,230.68 124.70,229.85 C116.02,229.09 89.72,229.33 71.50,230.33 C66.00,230.64 59.70,230.49 57.50,230.02 ZM 42.52 216.03 C42.19,215.49 42.57,214.03 43.37,212.78 C44.38,211.19 44.61,209.29 44.14,206.50 C43.74,204.18 43.24,203.13 42.78,203.60 C42.80,203.34 42.83,203.08 42.85,202.86 C42.93,201.96 44.10,200.94 45.43,200.61 C48.56,199.82 49.75,196.32 47.61,194.18 C46.27,192.84 45.50,192.78 42.69,193.80 C40.86,194.46 38.43,195.00 37.29,195.00 C34.18,195.00 33.83,197.49 36.57,200.07 C38.21,201.61 39.00,203.44 39.00,205.72 C39.00,207.79 39.12,208.56 39.73,208.53 C38.90,208.82 37.99,209.00 37.13,209.00 C36.04,209.00 34.20,207.68 33.05,206.07 C31.90,204.45 29.96,202.99 28.73,202.82 C26.60,202.51 26.49,202.01 26.21,191.58 C25.91,180.04 26.95,177.05 29.82,181.15 C30.63,182.31 31.97,182.98 32.97,182.72 C33.92,182.47 36.45,183.33 38.60,184.63 C40.74,185.93 43.40,187.01 44.50,187.03 C45.60,187.04 48.97,188.74 52.00,190.80 C56.78,194.05 57.47,194.93 57.28,197.52 C57.16,199.16 57.06,203.57 57.07,207.33 C57.07,211.16 56.68,213.92 56.17,213.61 C55.67,213.30 54.46,213.94 53.48,215.02 C51.56,217.14 43.66,217.87 42.52,216.03 ZM 49.74 79.11 C50.20,80.87 50.92,80.98 58.37,80.43 C68.40,79.70 70.04,79.27 67.97,77.96 C67.16,77.45 65.51,77.02 64.30,77.02 C62.95,77.01 60.88,75.49 58.96,73.10 C57.12,70.81 54.06,68.53 51.54,67.57 C49.18,66.67 46.45,65.04 45.47,63.96 C42.77,60.99 40.32,61.56 34.68,66.50 C31.85,68.97 29.19,71.00 28.77,71.00 C28.35,71.00 28.00,72.32 28.00,73.93 C28.00,77.28 30.33,78.54 34.12,77.23 C35.43,76.77 39.37,76.58 42.87,76.80 C48.12,77.12 49.33,77.53 49.74,79.11 ZM 74.48 218.25 C71.74,217.46 68.94,216.35 68.25,215.78 C66.83,214.62 66.53,209.00 67.89,209.00 C69.29,209.00 72.00,202.50 72.00,199.12 C72.00,196.90 72.73,195.57 74.65,194.31 C77.29,192.58 77.30,192.58 81.15,196.92 C84.91,201.15 85.00,201.44 84.98,208.88 C84.98,213.07 84.64,216.99 84.23,217.59 C82.94,219.50 79.58,219.73 74.48,218.25 ZM 69.99 108.03 C70.66,106.40 71.84,104.55 72.61,103.91 C73.37,103.28 74.00,102.36 74.00,101.88 C74.00,101.53 73.88,101.29 73.66,101.14 C75.12,101.02 77.10,101.00 79.95,101.00 C87.33,101.00 89.00,100.72 89.00,99.50 C89.00,98.28 87.33,98.00 79.97,98.00 C72.86,98.00 70.81,98.32 70.36,99.50 C70.03,100.36 68.54,101.00 66.89,101.00 C64.99,101.00 64.00,101.51 64.00,102.50 C64.00,103.32 63.55,104.00 63.00,104.00 C62.45,104.00 62.00,104.68 62.00,105.50 C62.00,106.32 61.52,107.00 60.93,107.00 C59.05,107.00 57.00,109.78 57.00,112.32 C57.00,113.68 56.33,115.05 55.50,115.36 C54.42,115.78 54.00,117.47 54.00,121.47 C54.00,125.72 54.35,127.00 55.50,127.00 C56.65,127.00 57.00,125.72 57.00,121.45 C57.00,116.82 57.41,115.52 59.50,113.59 C60.88,112.31 62.00,110.76 62.00,110.14 C62.00,109.51 62.45,109.00 63.00,109.00 C63.55,109.00 64.00,108.32 64.00,107.50 C64.00,107.35 64.02,107.21 64.05,107.08 C64.06,107.74 64.47,108.62 65.25,109.50 C67.20,111.71 68.65,111.26 69.99,108.03 ZM 161.89 210.37 C166.51,209.45 164.00,207.00 158.44,207.00 C156.06,207.00 153.84,206.55 153.50,206.00 C152.71,204.73 147.31,204.69 146.53,205.95 C146.21,206.47 143.82,206.71 141.22,206.48 C127.95,205.29 125.00,205.22 125.00,206.07 C125.00,206.58 125.72,207.00 126.59,207.00 C127.47,207.00 129.33,207.90 130.73,209.00 C132.97,210.76 134.78,211.00 146.01,211.00 C153.02,211.00 160.16,210.72 161.89,210.37 ZM 75.50 57.00 C78.68,58.37 90.24,58.22 89.77,56.82 C89.56,56.17 88.51,55.17 87.44,54.60 C86.37,54.02 83.82,52.47 81.77,51.15 C78.30,48.92 77.86,48.86 75.68,50.29 C74.38,51.14 72.01,51.99 70.42,52.17 C68.62,52.37 67.39,53.16 67.19,54.25 C66.93,55.62 67.57,56.02 70.18,56.07 C72.00,56.11 74.40,56.53 75.50,57.00 ZM 188.06 224.90 C188.63,223.83 188.65,223.02 188.12,222.58 C192.40,222.48 192.50,222.27 192.50,219.50 C192.50,216.76 192.16,216.45 188.50,215.95 C186.30,215.65 183.71,215.78 182.75,216.24 C181.14,217.01 180.31,220.98 181.52,222.19 C181.72,222.39 183.13,222.55 184.97,222.60 C182.70,223.16 179.90,224.41 178.95,225.56 C177.91,226.81 178.41,227.00 182.42,226.85 C185.76,226.72 187.38,226.16 188.06,224.90 ZM 51.26 42.07 C52.82,43.37 55.01,43.91 58.50,43.87 C62.35,43.82 62.93,43.63 61.00,43.05 L 58.50 42.29 L 61.50 41.80 C64.29,41.33 64.24,41.29 60.75,41.15 C58.69,41.07 57.00,40.59 57.00,40.08 C57.00,39.58 54.97,38.39 52.50,37.45 C50.03,36.50 48.00,35.34 48.00,34.86 C48.00,33.35 44.59,33.98 42.00,35.97 C38.83,38.41 40.27,40.20 45.41,40.20 C47.47,40.20 49.99,41.00 51.26,42.07 ZM 77.81 184.75 C77.58,184.06 78.21,181.93 79.20,180.00 C80.19,178.07 81.01,176.95 81.03,177.50 C81.05,178.05 81.52,177.71 82.08,176.75 C84.13,173.23 87.22,175.04 87.40,179.87 C87.46,181.48 88.35,182.87 89.77,183.57 C93.95,185.65 93.37,186.00 85.77,186.00 C80.61,186.00 78.08,185.60 77.81,184.75 ZM 175.11 205.93 C178.48,207.75 182.20,208.46 183.18,207.49 C183.46,207.21 183.15,204.85 182.49,202.24 C181.58,198.63 180.78,197.42 179.14,197.18 C177.97,197.00 177.00,197.34 177.00,197.93 C177.00,198.52 175.93,199.00 174.62,199.00 C171.73,199.00 169.22,201.62 170.70,203.10 C171.25,203.65 173.24,204.93 175.11,205.93 ZM 210.32 227.54 C211.12,226.74 213.40,225.97 215.39,225.83 C217.38,225.70 219.00,225.27 219.00,224.87 C219.00,224.47 219.77,224.00 220.72,223.82 C222.14,223.54 221.94,223.02 219.52,220.78 C217.91,219.29 216.81,217.85 217.08,217.59 C217.34,217.33 219.43,216.69 221.72,216.17 C224.99,215.44 225.99,215.54 226.41,216.63 C227.00,218.17 225.78,221.61 223.75,224.15 C221.99,226.35 215.46,229.00 211.81,229.00 C209.22,229.00 209.04,228.82 210.32,227.54 ZM 191.16 207.93 C195.23,209.57 196.00,209.19 196.00,205.57 C196.00,203.02 195.49,201.97 194.01,201.50 C191.57,200.73 190.00,201.59 190.00,203.70 C190.00,204.57 189.21,205.92 188.25,206.71 C187.29,207.50 187.02,207.89 187.66,207.57 C188.29,207.26 189.87,207.42 191.16,207.93 ZM 170.42 221.39 C174.05,220.00 171.45,217.00 166.62,217.00 C164.46,217.00 162.00,218.66 162.00,220.13 C162.00,221.52 167.80,222.40 170.42,221.39 ZM 123.25 156.42 C127.39,158.23 129.00,158.32 128.99,156.75 C128.97,155.14 122.22,150.74 120.96,151.52 C119.01,152.73 120.09,155.03 123.25,156.42 ZM 121.45 198.84 C122.85,198.20 124.00,197.06 124.00,196.31 C124.00,193.65 121.27,193.94 118.05,196.95 C115.17,199.64 115.03,200.00 116.85,200.00 C117.98,200.00 120.05,199.48 121.45,198.84 ZM 36.25 100.34 C38.44,101.22 41.00,101.03 41.00,99.99 C41.00,99.43 40.46,98.11 39.80,97.06 C38.89,95.60 38.18,95.37 36.80,96.11 C34.73,97.22 34.42,99.60 36.25,100.34 ZM 72.00 139.47 C72.00,137.37 74.70,136.50 76.51,138.01 C78.82,139.93 78.28,141.00 75.00,141.00 C72.97,141.00 72.00,140.50 72.00,139.47 ZM 85.36 169.50 C84.66,167.68 85.58,165.00 86.90,165.00 C88.14,165.00 89.32,168.67 88.51,169.99 C87.59,171.47 86.02,171.22 85.36,169.50 ZM 40.67 167.33 C42.03,168.69 43.00,167.93 43.00,165.50 C43.00,163.94 42.43,163.00 41.50,163.00 C40.00,163.00 39.41,166.08 40.67,167.33 ZM 46.00 166.53 C46.00,164.75 45.58,164.22 44.50,164.64 C43.67,164.95 43.00,165.87 43.00,166.67 C43.00,167.46 43.45,167.84 44.00,167.50 C44.55,167.16 45.00,167.36 45.00,167.94 C45.00,168.52 45.22,169.00 45.50,169.00 C45.78,169.00 46.00,167.89 46.00,166.53 ZM 225.00 210.61 C225.00,209.84 225.68,208.95 226.50,208.64 C227.52,208.25 228.00,208.69 228.00,210.03 C228.00,211.11 227.33,212.00 226.50,212.00 C225.68,212.00 225.00,211.37 225.00,210.61 ZM 225.02 173.25 C225.02,172.84 225.47,171.82 226.00,171.00 C226.78,169.79 226.97,169.93 226.98,171.75 C226.99,172.99 226.55,174.00 226.00,174.00 C225.45,174.00 225.01,173.66 225.02,173.25 ZM 66.00 155.47 C66.00,153.85 67.56,153.48 68.44,154.90 C68.74,155.39 68.32,156.05 67.49,156.36 C66.59,156.71 66.00,156.36 66.00,155.47 ZM 125.50 123.00 C125.16,123.55 125.58,124.00 126.44,124.00 C127.30,124.00 128.00,123.55 128.00,123.00 C128.00,122.45 127.58,122.00 127.06,122.00 C126.54,122.00 125.84,122.45 125.50,123.00 ZM 56.52 142.89 C56.43,142.96 56.33,143.00 56.22,143.00 C55.51,143.00 54.68,143.68 54.36,144.50 C54.19,144.96 53.85,145.37 53.46,145.65 C53.79,145.37 54.00,144.96 54.00,144.50 C54.00,143.68 54.83,143.00 55.83,143.00 C56.08,143.00 56.31,142.96 56.52,142.89 ZM 199.45 177.90 C199.90,176.72 200.41,175.04 201.01,172.80 C201.01,172.77 201.02,172.75 201.03,172.73 C200.72,174.44 200.10,176.43 199.45,177.90 ZM 52.55 146.00 C52.53,146.00 52.52,146.00 52.51,146.00 L 52.50 146.00 C51.96,146.01 51.38,146.82 51.03,147.95 C51.15,146.73 51.68,146.00 52.50,146.00 C52.52,146.00 52.53,146.00 52.55,146.00 ZM 41.02 207.95 C41.75,207.46 42.35,206.72 42.54,206.10 C42.72,206.67 42.06,207.38 41.02,207.95 ZM 163.03 182.14 C163.18,182.59 163.35,183.04 163.54,183.45 C163.70,183.77 163.83,184.08 163.96,184.36 C163.89,184.30 163.83,184.23 163.76,184.16 C163.47,183.87 163.22,183.18 163.03,182.14 ZM 164.50 187.62 C164.25,187.92 163.75,187.94 163.00,187.68 C163.61,187.82 164.13,187.79 164.50,187.62 ZM 70.57 101.85 C69.90,102.27 69.21,102.83 68.59,103.50 C69.28,102.75 69.84,102.22 70.57,101.85 ZM 95.61 108.74 C96.43,109.70 97.00,110.55 97.00,110.97 C97.00,110.60 96.44,109.74 95.61,108.74 ZM 151.83 188.66 C151.69,188.77 151.56,188.91 151.44,189.07 C151.55,188.90 151.68,188.76 151.83,188.66 Z" fill="rgb(6,67,70)"/>
<path d="M 230.34 246.20 L 225.50 248.81 L 32.03 248.63 L 27.15 246.39 C23.89,244.89 21.11,242.56 18.73,239.32 C16.78,236.67 14.02,233.49 12.59,232.26 C9.69,229.75 9.24,228.00 11.50,228.00 C12.32,228.00 13.00,228.45 13.00,229.00 C13.00,229.55 13.79,230.86 14.75,231.92 C15.71,232.97 18.52,236.12 20.99,238.92 C23.47,241.71 26.25,244.00 27.19,244.00 C28.12,244.00 29.16,244.45 29.50,245.00 C29.91,245.66 63.81,246.00 127.94,246.00 C209.39,246.00 226.22,245.77 228.44,244.61 C231.76,242.89 235.32,239.49 240.50,233.09 C242.70,230.37 245.06,228.11 245.75,228.07 C247.38,227.98 247.61,29.00 245.98,29.00 C245.42,29.00 244.47,27.92 243.87,26.61 C243.27,25.30 241.71,23.65 240.40,22.95 C239.09,22.25 237.46,20.40 236.77,18.84 C236.08,17.28 234.95,16.00 234.26,16.00 C233.57,16.00 233.00,15.32 233.00,14.50 C233.00,13.68 232.20,13.00 231.22,13.00 C230.24,13.00 228.64,12.06 227.66,10.91 C225.91,8.87 225.92,8.84 228.18,9.50 C229.46,9.88 232.92,12.62 235.88,15.59 C238.84,18.57 241.64,21.00 242.12,21.00 C242.59,21.00 244.12,22.81 245.51,25.02 L 248.05 29.04 L 248.02 227.01 L 245.50 231.00 C244.11,233.20 242.61,235.00 242.16,235.00 C241.71,235.00 239.95,236.93 238.25,239.29 C236.54,241.68 233.02,244.75 230.34,246.20 ZM 206.00 139.97 C206.00,140.54 205.17,141.00 204.15,141.00 C205.37,141.00 206.00,140.27 206.00,138.88 C206.00,137.72 207.51,135.36 209.36,133.63 C215.16,128.24 216.17,124.22 213.93,115.62 C213.33,113.35 212.43,109.87 211.92,107.88 C211.32,105.53 209.06,102.37 205.50,98.91 C202.47,95.97 200.00,93.18 200.00,92.70 C200.00,92.23 202.66,89.18 205.92,85.92 C213.01,78.83 215.21,78.47 219.58,83.67 C221.42,85.86 223.13,87.04 223.83,86.61 C226.74,84.81 223.66,73.00 220.28,73.00 C219.58,73.00 218.10,72.10 217.00,71.00 C214.13,68.13 211.64,68.52 207.31,72.50 C206.72,73.03 206.11,73.54 205.51,74.00 C208.18,71.90 211.00,68.81 210.48,67.96 C210.07,67.30 211.12,67.06 213.39,67.29 C217.85,67.75 225.69,74.42 226.95,78.84 C227.50,80.74 227.47,83.34 226.88,85.48 C226.02,88.60 225.53,89.00 222.60,89.00 C219.68,89.00 219.12,88.54 217.73,85.00 C216.84,82.73 215.49,81.00 214.61,81.00 C213.76,81.00 210.91,83.02 208.28,85.48 C205.65,87.95 203.16,89.97 202.75,89.98 C202.34,89.99 202.00,90.87 202.00,91.94 C202.00,93.04 204.15,95.69 206.93,98.04 C209.64,100.33 212.18,102.94 212.58,103.85 C213.47,105.89 214.86,114.46 215.64,122.76 L 216.23 129.02 L 211.12 133.98 C208.30,136.71 206.00,139.40 206.00,139.97 ZM 41.02 207.95 C40.63,208.17 40.19,208.36 39.73,208.53 C39.12,208.56 39.00,207.79 39.00,205.72 C39.00,203.44 38.21,201.61 36.57,200.07 C33.83,197.49 34.18,195.00 37.29,195.00 C38.43,195.00 40.86,194.46 42.69,193.80 C45.50,192.78 46.27,192.84 47.61,194.18 C49.75,196.32 48.56,199.82 45.43,200.61 C44.10,200.94 42.93,201.96 42.85,202.86 C42.83,203.08 42.80,203.34 42.78,203.60 C42.74,203.64 42.70,203.69 42.67,203.75 C42.23,204.44 42.15,205.43 42.47,205.95 C42.50,206.00 42.52,206.05 42.54,206.10 C42.35,206.72 41.75,207.46 41.02,207.95 ZM 175.11 205.93 C173.24,204.93 171.25,203.65 170.70,203.10 C169.22,201.62 171.73,199.00 174.62,199.00 C175.93,199.00 177.00,198.52 177.00,197.93 C177.00,197.37 177.89,197.03 179.01,197.16 C178.37,197.26 178.00,197.73 178.00,198.50 C178.00,199.46 178.65,200.01 179.55,199.82 C180.52,199.62 181.08,199.16 181.22,198.67 C181.68,199.45 182.07,200.60 182.49,202.24 C183.15,204.85 183.46,207.21 183.18,207.49 C182.20,208.46 178.48,207.75 175.11,205.93 ZM 137.43 223.00 C137.10,223.00 136.82,223.15 136.59,223.41 C136.18,223.56 135.94,223.86 135.84,224.32 C135.59,225.37 134.89,225.53 133.25,224.91 C130.54,223.89 130.42,222.18 132.75,218.09 C134.67,214.71 136.13,214.25 137.95,216.44 C138.61,217.23 139.73,217.66 140.44,217.38 C141.16,217.11 142.50,217.64 143.42,218.56 C144.99,220.13 144.98,220.36 143.36,222.16 C142.17,223.47 140.97,223.87 139.17,223.53 C138.62,223.20 138.03,223.00 137.43,223.00 ZM 149.85 140.99 C146.94,136.93 147.32,132.41 150.88,130.56 C152.46,129.74 156.40,126.36 159.63,123.04 L 165.50 117.00 L 171.68 117.00 C177.18,117.00 178.08,117.29 179.95,119.66 L 182.05 122.33 L 178.97 125.33 C177.83,126.44 177.07,127.44 176.62,128.39 C176.75,126.61 176.95,124.36 177.22,121.52 L 177.50 118.55 L 165.89 118.50 L 159.55 125.17 C155.98,128.93 152.19,131.98 150.86,132.17 C147.56,132.63 147.15,137.18 149.85,140.99 ZM 166.23 26.03 C166.69,26.03 167.15,26.03 167.60,26.03 C169.16,26.19 170.10,26.93 170.81,28.49 C172.35,31.86 171.69,33.01 166.20,36.46 C163.62,38.08 160.91,40.22 160.19,41.21 C159.47,42.19 158.24,43.00 157.44,43.00 C156.76,43.00 156.34,43.36 156.15,43.92 C156.85,41.56 159.76,38.00 161.23,38.00 C161.72,38.00 163.89,36.57 166.06,34.83 C173.14,29.14 169.96,25.37 162.40,30.50 C160.38,31.88 157.96,33.00 157.03,33.00 C156.11,33.00 154.29,34.12 153.00,35.50 C152.67,35.85 152.32,36.18 151.97,36.49 C153.51,35.11 154.90,33.23 154.37,32.70 C154.01,32.34 155.76,31.18 158.25,30.11 C160.74,29.04 163.08,27.68 163.45,27.08 C163.76,26.57 164.94,26.15 166.23,26.03 ZM 192.50 219.50 C192.50,222.27 192.40,222.48 188.12,222.58 C188.07,222.55 188.03,222.52 187.98,222.49 C187.48,222.18 186.31,222.27 184.97,222.60 C183.13,222.55 181.72,222.39 181.52,222.19 C180.31,220.98 181.14,217.01 182.75,216.24 C183.71,215.78 186.30,215.65 188.50,215.95 C192.16,216.45 192.50,216.76 192.50,219.50 ZM 117.70 60.88 C117.95,60.95 118.22,61.02 118.50,61.11 C121.24,61.92 123.24,63.17 123.60,64.30 C124.99,68.71 130.46,76.08 132.75,76.65 C134.08,76.99 136.26,78.35 137.58,79.67 C137.89,79.98 138.16,80.27 138.39,80.56 C138.04,80.29 137.61,80.02 137.10,79.72 C135.50,78.77 133.03,78.00 131.61,78.00 C129.69,78.00 128.31,76.93 126.26,73.86 C121.98,67.43 121.03,65.63 121.01,63.87 C121.01,62.98 119.58,61.66 117.85,60.94 C117.80,60.92 117.75,60.90 117.70,60.88 ZM 163.03 182.14 C163.22,183.18 163.47,183.87 163.76,184.16 C163.83,184.23 163.89,184.30 163.96,184.36 C164.12,184.75 164.26,185.11 164.37,185.44 C164.06,185.03 163.64,184.63 163.11,184.30 C161.42,183.24 161.27,182.21 161.75,174.56 C162.27,166.18 162.23,166.00 160.02,166.00 C158.06,166.00 157.86,166.35 158.48,168.75 C159.29,171.89 159.41,174.69 158.98,180.77 C158.83,182.82 158.92,184.11 159.37,185.06 C159.26,184.89 159.15,184.70 159.05,184.51 C158.62,183.38 158.47,181.78 158.45,179.21 C158.43,176.07 157.82,172.45 157.12,171.16 C156.41,169.87 156.11,167.70 156.45,166.34 C156.95,164.36 157.61,163.94 159.78,164.19 L 162.50 164.50 L 162.51 173.71 C162.52,174.74 162.53,175.69 162.56,176.57 C162.26,177.98 162.41,180.18 163.03,182.14 ZM 209.74 40.59 C208.63,41.49 207.48,42.40 206.37,43.24 C210.07,39.97 213.60,35.60 213.77,33.56 C214.02,30.48 213.10,30.35 209.73,33.00 C208.33,34.10 206.58,35.01 205.84,35.02 C205.37,35.02 204.02,35.58 202.40,36.40 C205.23,34.69 207.92,32.78 209.48,31.25 C214.02,26.81 216.00,26.96 215.99,31.75 C215.97,35.13 215.36,36.00 209.74,40.59 ZM 183.37 220.52 C183.82,221.68 185.01,222.04 187.74,221.81 C190.73,221.56 191.50,221.09 191.50,219.50 C191.50,217.78 190.94,217.55 187.51,217.82 C182.84,218.20 182.55,218.39 183.37,220.52 ZM 176.48 132.25 C177.38,134.99 179.91,133.86 183.37,129.05 C185.35,126.29 186.40,124.75 186.72,123.52 C186.57,124.58 186.03,125.97 185.06,128.36 C182.45,134.78 180.88,136.41 178.15,135.55 C177.05,135.20 176.53,134.68 176.48,132.25 ZM 44.05 198.56 C45.18,199.92 45.50,199.92 46.80,198.63 C48.54,196.89 47.73,194.00 45.50,194.00 C43.35,194.00 42.50,196.69 44.05,198.56 ZM 173.45 202.91 C174.24,204.20 175.04,204.26 176.80,203.15 C177.83,202.49 177.77,202.05 176.50,201.00 C174.71,199.51 172.28,201.03 173.45,202.91 ZM 151.83 188.66 C152.46,188.22 153.39,188.35 154.18,189.25 C155.44,191.29 155.13,192.00 153.00,192.00 C152.24,192.00 151.57,191.69 151.23,191.23 C151.22,191.10 151.20,190.97 151.18,190.84 C151.05,190.09 151.17,189.48 151.44,189.07 C151.56,188.91 151.69,188.77 151.83,188.66 ZM 132.23 222.81 C132.01,223.47 132.55,224.00 133.42,224.00 C134.29,224.00 135.00,223.29 135.00,222.42 C135.00,220.65 132.85,220.96 132.23,222.81 ZM 110.72 61.90 C110.98,61.74 111.25,61.57 111.53,61.39 C112.41,60.81 113.08,60.46 113.84,60.33 C113.24,60.52 112.60,60.84 111.77,61.32 C111.40,61.53 111.05,61.72 110.72,61.90 ZM 185.19 119.14 C184.28,117.58 184.13,116.05 184.69,114.73 C184.20,115.98 184.36,117.46 185.19,119.14 ZM 192.25 41.00 C190.88,41.25 186.81,44.20 182.73,47.92 C186.90,44.11 191.18,41.00 192.23,41.00 ZM 195.26 51.35 C193.39,53.21 192.00,55.09 192.00,56.07 C192.00,55.05 193.36,53.20 195.26,51.35 ZM 107.11 62.85 C106.29,62.51 106.00,61.39 106.00,59.38 C106.00,61.31 106.33,62.45 107.11,62.85 ZM 156.08 44.18 C155.94,44.91 156.12,45.88 156.60,46.82 C156.23,46.13 156.00,45.41 156.00,44.82 C156.00,44.63 156.03,44.41 156.08,44.18 ZM 140.00 88.25 C140.00,88.31 140.00,88.37 140.00,88.42 C140.00,92.37 139.73,94.55 138.55,95.77 C139.73,94.54 139.99,92.31 140.00,88.25 ZM 196.33 39.67 C194.79,40.38 193.41,40.88 192.63,40.97 C193.49,40.84 194.80,40.37 196.33,39.67 Z" fill="rgb(31,61,68)"/>
<path d="M 0.00 0.00 L 256.00 0.00 L 256.00 256.00 L 0.00 256.00 ZM 230.34 246.20 C233.02,244.75 236.54,241.68 238.25,239.29 C239.95,236.93 241.71,235.00 242.16,235.00 C242.61,235.00 244.11,233.20 245.50,231.00 L 248.02 227.01 L 248.05 29.04 L 245.51 25.02 C244.12,22.81 242.59,21.00 242.12,21.00 C241.64,21.00 238.84,18.57 235.88,15.59 C232.92,12.62 229.46,9.88 228.18,9.50 C225.92,8.84 225.91,8.87 227.66,10.91 C227.73,11.00 227.81,11.08 227.89,11.17 C225.04,10.15 207.85,10.00 128.33,10.00 C68.46,10.00 28.17,10.37 27.12,10.94 C23.77,12.73 12.84,24.52 11.42,27.87 C10.22,30.71 10.00,46.76 10.00,129.62 C10.00,216.40 10.18,228.00 11.50,228.00 C9.24,228.00 9.69,229.75 12.59,232.26 C14.02,233.49 16.78,236.67 18.73,239.32 C21.11,242.56 23.89,244.89 27.15,246.39 L 32.03 248.63 L 225.50 248.81 ZM 164.50 187.62 C164.13,187.79 163.61,187.82 163.00,187.68 C162.60,187.55 162.12,187.33 161.58,187.04 C160.66,186.55 159.93,185.90 159.37,185.06 C158.92,184.11 158.83,182.82 158.98,180.77 C159.41,174.69 159.29,171.89 158.48,168.75 C157.86,166.35 158.06,166.00 160.02,166.00 C161.90,166.00 162.21,166.13 161.94,171.31 C161.80,169.93 161.43,168.77 161.00,168.50 C160.39,168.12 160.00,169.68 160.00,172.50 C160.00,175.32 160.39,176.88 161.00,176.50 C161.28,176.33 161.54,175.77 161.72,175.02 C161.28,182.25 161.45,183.26 163.11,184.30 C163.64,184.63 164.06,185.03 164.37,185.44 C164.75,186.55 164.80,187.27 164.50,187.62 ZM 183.37 220.52 C182.55,218.39 182.84,218.20 187.51,217.82 C190.94,217.55 191.50,217.78 191.50,219.50 C191.50,221.09 190.73,221.56 187.74,221.81 C185.01,222.04 183.82,221.68 183.37,220.52 ZM 71.62 116.46 C71.73,116.16 71.86,116.00 72.00,116.00 C72.55,116.00 73.00,115.39 73.00,114.65 C73.00,111.73 76.11,110.19 82.33,110.04 C79.96,110.30 77.88,110.98 76.87,112.15 C75.84,113.34 75.00,114.69 75.00,115.15 C75.00,115.62 74.10,116.00 73.00,116.00 C72.35,116.00 71.91,116.09 71.62,116.46 ZM 173.45 202.91 C172.28,201.03 174.71,199.51 176.50,201.00 C177.77,202.05 177.83,202.49 176.80,203.15 C175.04,204.26 174.24,204.20 173.45,202.91 ZM 214.67 207.33 C213.60,206.26 213.90,203.18 215.15,202.41 C216.61,201.51 219.04,204.72 218.32,206.60 C218.15,207.04 217.85,207.39 217.49,207.63 C217.80,207.39 218.00,207.03 218.00,206.56 C218.00,204.60 216.06,203.54 214.80,204.80 C214.24,205.36 214.08,206.31 214.45,206.91 C214.94,207.71 215.84,208.04 216.61,207.96 C215.93,208.07 215.21,207.87 214.67,207.33 ZM 187.69 220.36 C188.89,221.56 191.00,221.01 191.00,219.50 C191.00,218.68 190.35,218.00 189.56,218.00 C187.89,218.00 186.76,219.43 187.69,220.36 ZM 231.22 13.00 C232.20,13.00 233.00,13.68 233.00,14.50 C233.00,13.66 232.11,13.00 230.97,13.00 C229.94,13.00 228.86,12.43 228.45,11.69 C229.37,12.46 230.48,13.00 231.22,13.00 ZM 91.40 111.06 C93.09,111.68 94.00,112.56 94.00,113.67 C94.00,112.58 92.97,111.70 91.40,111.06 Z" fill="rgb(45,54,54)"/>
<path d="M 199.45 177.90 C200.10,176.43 200.72,174.44 201.03,172.73 C201.17,172.18 201.23,171.69 201.21,171.28 C201.21,171.20 201.22,171.12 201.22,171.04 C201.27,169.20 201.84,168.00 202.65,168.00 C203.41,168.00 204.00,166.95 204.00,165.61 C204.00,164.29 204.68,162.95 205.50,162.64 C206.49,162.26 207.00,160.69 207.00,158.03 C207.00,155.81 207.45,154.00 208.00,154.00 C208.55,154.00 209.00,152.65 209.00,151.00 C209.00,149.35 209.45,148.00 210.00,148.00 C210.55,148.00 211.00,147.10 211.00,146.00 C211.00,144.89 211.67,144.00 212.50,144.00 C213.32,144.00 214.00,143.55 214.00,143.00 C214.00,142.45 214.90,142.00 216.00,142.00 C217.88,142.00 218.00,142.66 218.00,153.76 C217.75,151.06 217.23,149.00 216.43,149.00 C213.26,149.00 212.00,151.67 212.00,158.43 C212.00,163.60 211.68,165.00 210.50,165.00 C209.67,165.00 209.00,165.89 209.00,167.00 C209.00,168.11 208.33,169.00 207.50,169.00 C206.68,169.00 206.00,169.68 206.00,170.50 C206.00,171.32 205.55,172.00 205.00,172.00 C204.45,172.00 204.00,173.12 204.00,174.50 C204.00,176.06 203.43,177.00 202.50,177.00 C201.68,177.00 201.00,177.68 201.00,178.50 C201.00,179.32 200.20,180.00 199.21,180.00 C198.39,180.00 197.86,180.36 197.54,181.21 C197.71,180.46 197.89,180.00 198.07,180.00 C198.46,180.00 198.90,179.33 199.45,177.90 ZM 79.95 101.00 C77.10,101.00 75.12,101.02 73.66,101.14 C73.09,100.75 71.86,101.05 70.57,101.85 C69.84,102.22 69.28,102.75 68.59,103.50 C67.31,104.88 65.76,106.00 65.14,106.00 C64.39,106.00 64.03,106.43 64.05,107.08 C64.02,107.21 64.00,107.35 64.00,107.50 C64.00,108.32 63.55,109.00 63.00,109.00 C62.45,109.00 62.00,109.51 62.00,110.14 C62.00,110.76 60.88,112.31 59.50,113.59 C57.41,115.52 57.00,116.82 57.00,121.45 C57.00,125.72 56.65,127.00 55.50,127.00 C54.35,127.00 54.00,125.72 54.00,121.47 C54.00,117.47 54.42,115.78 55.50,115.36 C56.33,115.05 57.00,113.68 57.00,112.32 C57.00,109.78 59.05,107.00 60.93,107.00 C61.52,107.00 62.00,106.32 62.00,105.50 C62.00,104.68 62.45,104.00 63.00,104.00 C63.55,104.00 64.00,103.32 64.00,102.50 C64.00,101.51 64.99,101.00 66.89,101.00 C68.54,101.00 70.03,100.36 70.36,99.50 C70.81,98.32 72.86,98.00 79.97,98.00 C87.33,98.00 89.00,98.28 89.00,99.50 C89.00,100.72 87.33,101.00 79.95,101.00 ZM 93.97 106.97 C92.80,105.83 92.07,105.13 91.45,104.81 C90.77,104.31 90.21,104.00 89.88,104.00 C87.92,104.00 89.65,101.50 91.83,101.18 C93.27,100.97 94.00,101.39 94.00,102.43 C94.00,103.29 94.68,104.00 95.50,104.00 C96.32,104.00 97.00,104.68 97.00,105.50 C97.00,106.32 97.48,107.00 98.07,107.00 C99.86,107.00 101.50,109.29 102.74,113.50 C104.31,118.81 105.26,128.17 104.44,130.30 C103.01,134.02 102.00,131.62 102.00,124.50 C102.00,121.83 101.84,119.61 101.58,118.29 C101.48,117.48 101.31,117.00 101.08,117.00 C100.49,117.00 100.00,115.88 100.00,114.50 C100.00,112.94 99.43,112.00 98.50,112.00 C97.68,112.00 97.00,111.53 97.00,110.97 C97.00,110.60 96.44,109.74 95.61,108.74 C95.13,108.17 94.57,107.56 93.97,106.97 ZM 56.52 142.89 C56.31,142.96 56.08,143.00 55.83,143.00 C54.83,143.00 54.00,143.68 54.00,144.50 C54.00,144.96 53.79,145.37 53.46,145.65 C53.17,145.86 52.85,145.99 52.55,146.00 L 52.55 146.00 C52.53,146.00 52.52,146.00 52.50,146.00 C51.96,146.01 51.38,146.82 51.03,147.95 C50.92,148.29 50.84,148.66 50.78,149.04 C50.71,149.54 50.66,149.97 50.65,150.32 C50.18,151.26 49.30,151.30 48.56,150.09 C47.83,148.92 48.94,146.00 50.11,146.00 C50.60,146.00 51.00,145.32 51.00,144.50 C51.00,143.68 51.67,143.00 52.50,143.00 C53.33,143.00 54.00,142.32 54.00,141.50 C54.00,140.68 54.83,140.00 55.83,140.00 C56.39,140.00 56.89,140.20 57.22,140.53 C57.07,141.90 56.84,142.63 56.52,142.89 ZM 43.00 159.50 C43.00,157.94 43.57,157.00 44.50,157.00 C46.00,152.35 46.45,151.00 47.00,151.00 C47.55,151.00 48.00,152.35 48.00,154.00 C48.00,155.65 47.55,157.00 47.00,157.00 C46.55,157.00 46.17,157.74 46.05,158.75 C45.89,159.20 45.86,159.66 45.97,160.10 C45.84,161.29 45.31,162.00 44.50,162.00 C43.57,162.00 43.00,161.06 43.00,159.50 ZM 40.67 167.33 C39.41,166.08 40.00,163.00 41.50,163.00 C42.43,163.00 43.00,163.94 43.00,165.50 C43.00,167.93 42.03,168.69 40.67,167.33 ZM 197.16 184.20 C197.21,185.55 197.56,186.73 198.05,187.03 C198.78,187.48 198.28,188.68 196.58,190.51 C195.63,191.54 194.86,192.83 194.41,194.07 C194.67,193.19 195.04,192.33 195.45,191.71 C196.24,190.50 197.00,187.36 197.13,184.75 C197.14,184.56 197.15,184.38 197.16,184.20 ZM 217.70 163.64 C217.47,165.44 217.10,166.13 216.50,166.36 C217.02,166.16 217.42,165.12 217.70,163.64 ZM 194.00 196.36 C194.01,197.46 194.12,198.11 194.49,198.49 C194.11,198.12 194.00,197.49 194.00,196.46 C194.00,196.43 194.00,196.40 194.00,196.36 Z" fill="rgb(41,137,127)"/>
<path d="M 128.33 10.00 C207.85,10.00 225.04,10.15 227.89,11.17 C228.06,11.35 228.25,11.52 228.45,11.69 C228.86,12.43 229.94,13.00 230.97,13.00 C232.11,13.00 233.00,13.66 233.00,14.50 C233.00,15.32 233.57,16.00 234.26,16.00 C234.95,16.00 236.08,17.28 236.77,18.84 C237.46,20.40 239.09,22.25 240.40,22.95 C241.71,23.65 243.27,25.30 243.87,26.61 C244.47,27.92 245.42,29.00 245.98,29.00 C247.61,29.00 247.38,227.98 245.75,228.07 C245.06,228.11 242.70,230.37 240.50,233.09 C235.32,239.49 231.76,242.89 228.44,244.61 C226.22,245.77 209.39,246.00 127.94,246.00 C63.81,246.00 29.91,245.66 29.50,245.00 C29.16,244.45 28.12,244.00 27.19,244.00 C26.25,244.00 23.47,241.71 20.99,238.92 C18.52,236.12 15.71,232.97 14.75,231.92 C13.79,230.86 13.00,229.55 13.00,229.00 C13.00,228.45 12.32,228.00 11.50,228.00 C10.18,228.00 10.00,216.40 10.00,129.62 C10.00,46.76 10.22,30.71 11.42,27.87 C12.84,24.52 23.77,12.73 27.12,10.94 C28.17,10.37 68.46,10.00 128.33,10.00 ZM 224.00 242.50 C224.00,241.51 224.99,241.00 226.88,241.00 C228.86,241.00 230.29,240.21 231.41,238.50 C232.31,237.12 233.52,236.00 234.09,236.00 C235.46,236.00 238.00,233.45 238.00,232.07 C238.00,231.48 238.68,231.00 239.50,231.00 C240.55,231.00 241.00,229.94 241.00,227.50 C241.00,225.06 241.45,224.00 242.50,224.00 C243.82,224.00 244.00,212.72 244.00,128.50 C244.00,52.63 243.74,33.05 242.75,33.25 C242.04,33.39 241.36,32.28 241.18,30.69 C241.00,29.15 240.21,27.64 239.43,27.33 C238.64,27.03 238.00,26.16 238.00,25.39 C238.00,24.63 237.55,24.00 237.00,24.00 C236.45,24.00 236.00,23.33 236.00,22.50 C236.00,21.67 235.39,21.00 234.65,21.00 C233.90,21.00 232.08,19.88 230.59,18.50 C229.11,17.12 227.02,16.00 225.95,16.00 C224.88,16.00 224.00,15.32 224.00,14.50 C224.00,13.18 212.72,13.00 128.50,13.00 C44.28,13.00 33.00,13.18 33.00,14.50 C33.00,15.55 31.94,16.00 29.50,16.00 C27.58,16.00 26.00,16.43 26.00,16.95 C26.00,17.47 23.77,20.26 21.04,23.15 C18.32,26.04 15.94,29.32 15.77,30.45 C15.60,31.58 14.90,32.39 14.23,32.25 C13.26,32.05 13.00,52.83 13.00,128.50 C13.00,213.61 13.18,225.00 14.50,225.00 C15.32,225.00 16.00,225.75 16.00,226.67 C16.00,227.58 16.79,229.17 17.75,230.20 C24.07,236.93 28.72,240.99 30.13,240.99 C31.02,241.00 32.32,241.68 33.00,242.50 C34.09,243.81 46.01,244.00 129.12,244.00 C212.79,244.00 224.00,243.82 224.00,242.50 ZM 197.16 184.20 C197.18,183.99 197.19,183.79 197.21,183.59 L 197.21 183.59 C197.29,182.66 197.41,181.84 197.54,181.21 C197.86,180.36 198.39,180.00 199.21,180.00 C200.20,180.00 201.00,179.32 201.00,178.50 C201.00,177.68 201.68,177.00 202.50,177.00 C203.43,177.00 204.00,176.06 204.00,174.50 C204.00,173.12 204.45,172.00 205.00,172.00 C205.55,172.00 206.00,171.32 206.00,170.50 C206.00,169.68 206.68,169.00 207.50,169.00 C208.33,169.00 209.00,168.11 209.00,167.00 C209.00,165.89 209.67,165.00 210.50,165.00 C211.68,165.00 212.00,163.60 212.00,158.43 C212.00,151.67 213.26,149.00 216.43,149.00 C217.23,149.00 217.75,151.06 218.00,153.76 L 218.00 153.89 C218.00,158.78 217.93,161.79 217.70,163.64 C217.42,165.12 217.02,166.16 216.50,166.36 C215.56,166.72 215.00,168.25 215.00,170.47 C215.00,172.41 214.55,174.00 214.00,174.00 C213.54,174.00 213.25,174.40 213.12,175.06 C212.07,176.70 211.00,179.93 211.00,182.01 C211.00,183.44 210.34,185.49 209.53,186.56 C208.72,187.63 208.05,189.34 208.03,190.36 C208.01,191.85 207.49,192.09 205.42,191.57 C203.77,191.16 203.06,191.29 203.46,191.94 C204.16,193.06 202.33,197.08 200.60,198.23 C200.00,198.64 198.26,198.98 196.75,198.98 C195.58,198.99 194.89,198.88 194.49,198.49 C194.12,198.11 194.01,197.46 194.00,196.36 C194.02,195.69 194.17,194.87 194.41,194.07 C194.86,192.83 195.63,191.54 196.58,190.51 C198.28,188.68 198.78,187.48 198.05,187.03 C197.56,186.73 197.21,185.55 197.16,184.20 ZM 49.74 79.11 C49.33,77.53 48.12,77.12 42.87,76.80 C39.37,76.58 35.43,76.77 34.12,77.23 C30.33,78.54 28.00,77.28 28.00,73.93 C28.00,72.32 28.35,71.00 28.77,71.00 C29.19,71.00 31.85,68.97 34.68,66.50 C40.32,61.56 42.77,60.99 45.47,63.96 C46.45,65.04 49.18,66.67 51.54,67.57 C54.06,68.53 57.12,70.81 58.96,73.10 C60.88,75.49 62.95,77.01 64.30,77.02 C65.51,77.02 67.16,77.45 67.97,77.96 C70.04,79.27 68.40,79.70 58.37,80.43 C50.92,80.98 50.20,80.87 49.74,79.11 ZM 75.50 57.00 C74.40,56.53 72.00,56.11 70.18,56.07 C67.57,56.02 66.93,55.62 67.19,54.25 C67.39,53.16 68.62,52.37 70.42,52.17 C72.01,51.99 74.38,51.14 75.68,50.29 C77.86,48.86 78.30,48.92 81.77,51.15 C83.82,52.47 86.37,54.02 87.44,54.60 C88.51,55.17 89.56,56.17 89.77,56.82 C90.24,58.22 78.68,58.37 75.50,57.00 ZM 51.26 42.07 C49.99,41.00 47.47,40.20 45.41,40.20 C40.27,40.20 38.83,38.41 42.00,35.97 C44.59,33.98 48.00,33.35 48.00,34.86 C48.00,35.34 50.03,36.50 52.50,37.45 C54.97,38.39 57.00,39.58 57.00,40.08 C57.00,40.59 58.69,41.07 60.75,41.15 C64.24,41.29 64.29,41.33 61.50,41.80 L 58.50 42.29 L 61.00 43.05 C62.93,43.63 62.35,43.82 58.50,43.87 C55.01,43.91 52.82,43.37 51.26,42.07 ZM 191.16 207.93 C189.87,207.42 188.29,207.26 187.66,207.57 C187.02,207.89 187.29,207.50 188.25,206.71 C189.21,205.92 190.00,204.57 190.00,203.70 C190.00,201.59 191.57,200.73 194.01,201.50 C195.49,201.97 196.00,203.02 196.00,205.57 C196.00,209.19 195.23,209.57 191.16,207.93 ZM 123.25 156.42 C120.09,155.03 119.01,152.73 120.96,151.52 C122.22,150.74 128.97,155.14 128.99,156.75 C129.00,158.32 127.39,158.23 123.25,156.42 ZM 36.25 100.34 C34.42,99.60 34.73,97.22 36.80,96.11 C38.18,95.37 38.89,95.60 39.80,97.06 C40.46,98.11 41.00,99.43 41.00,99.99 C41.00,101.03 38.44,101.22 36.25,100.34 ZM 125.50 123.00 C125.84,122.45 126.54,122.00 127.06,122.00 C127.58,122.00 128.00,122.45 128.00,123.00 C128.00,123.55 127.30,124.00 126.44,124.00 C125.58,124.00 125.16,123.55 125.50,123.00 Z" fill="rgb(25,90,91)"/>
<path d="M 149.85 140.99 C150.03,141.24 150.22,141.48 150.42,141.72 C153.28,145.12 152.93,146.00 148.76,146.00 C146.40,146.00 143.78,144.28 141.77,141.70 C140.59,140.62 139.69,138.96 139.05,136.68 C138.88,136.08 138.74,135.56 138.63,135.11 C138.73,135.47 138.84,135.87 138.98,136.32 C139.57,138.30 140.56,140.15 141.77,141.70 C142.12,142.02 142.49,142.28 142.89,142.50 C144.33,143.28 145.61,143.94 145.73,143.96 C145.86,143.98 145.69,141.28 145.34,137.96 C144.76,132.45 144.93,131.68 147.21,129.21 C148.58,127.72 149.99,125.71 150.33,124.73 C150.67,123.76 152.09,122.54 153.47,122.01 C154.86,121.48 156.00,120.74 156.00,120.35 C156.00,119.45 152.88,116.00 152.05,116.00 C151.45,116.00 149.91,117.22 148.27,118.78 C147.70,119.50 147.05,120.17 146.34,120.74 C144.52,122.69 143.00,124.65 143.00,125.36 C143.00,126.31 141.83,128.26 140.41,129.68 C141.84,128.25 143.00,126.20 143.00,125.11 C143.00,124.03 144.29,122.22 145.87,121.09 C146.03,120.98 146.18,120.86 146.34,120.74 C146.96,120.07 147.63,119.40 148.27,118.78 C150.25,116.27 151.23,113.03 150.59,110.48 C149.69,106.90 145.85,105.65 139.77,106.96 C131.69,108.69 128.81,108.30 124.70,104.90 C122.63,103.20 120.04,100.03 118.93,97.86 C117.89,95.81 116.05,93.78 114.65,93.07 C115.04,93.17 115.49,93.24 115.98,93.27 C117.40,93.38 119.11,94.81 120.54,97.06 C121.80,99.05 123.57,101.43 124.48,102.34 C126.92,104.77 136.05,104.60 139.14,102.06 C141.07,100.48 141.30,99.79 140.38,98.31 C139.65,97.13 138.44,96.65 136.88,96.93 C133.61,97.52 131.56,97.70 130.22,97.31 C130.86,97.38 131.73,97.36 132.92,97.30 C135.79,97.17 137.52,96.85 138.55,95.77 C139.73,94.55 140.00,92.37 140.00,88.42 C140.00,88.37 140.00,88.31 140.00,88.25 C140.00,88.20 140.00,88.15 140.00,88.09 C140.00,82.99 139.89,81.72 138.39,80.56 C138.16,80.27 137.89,79.98 137.58,79.67 C136.26,78.35 134.08,76.99 132.75,76.65 C130.46,76.08 124.99,68.71 123.60,64.30 C123.24,63.17 121.24,61.92 118.50,61.11 C118.22,61.02 117.95,60.95 117.70,60.88 C115.97,60.17 115.02,59.97 113.84,60.33 C113.08,60.46 112.41,60.81 111.53,61.39 C111.25,61.57 110.98,61.74 110.72,61.90 C108.98,62.81 107.83,63.14 107.11,62.85 C106.33,62.45 106.00,61.31 106.00,59.38 C106.00,58.91 106.05,58.42 106.15,57.94 C106.18,58.31 106.29,58.66 106.49,58.98 C107.30,60.30 112.00,57.23 112.00,55.38 C112.00,54.44 113.25,54.00 115.96,54.00 C119.06,54.00 120.19,54.49 121.11,56.25 C121.77,57.49 122.59,58.72 122.95,59.00 C123.30,59.28 125.71,62.28 128.30,65.68 C130.89,69.08 134.18,72.78 135.60,73.90 L 138.18 75.93 L 140.99 73.85 C144.83,71.01 146.65,72.28 144.02,75.97 C141.82,79.06 141.28,87.00 142.88,92.59 C143.88,96.08 147.67,100.25 153.34,104.09 C157.21,106.72 162.47,107.67 163.54,105.93 C163.86,105.42 165.55,105.00 167.31,104.99 C176.25,104.98 182.54,100.54 185.67,92.02 C186.59,89.54 187.87,86.82 188.52,86.00 C189.17,85.18 190.26,82.42 190.94,79.88 C192.01,75.91 191.96,74.82 190.54,72.08 C189.64,70.33 188.32,68.68 187.62,68.41 C186.92,68.14 186.41,66.93 186.50,65.72 C186.60,64.38 185.85,63.11 184.58,62.48 C181.31,60.86 181.35,57.10 184.66,54.39 C186.22,53.12 188.08,52.06 188.80,52.04 C189.51,52.02 191.14,50.95 192.42,49.67 C193.69,48.40 196.17,46.76 197.91,46.04 C199.65,45.32 201.62,43.96 202.29,43.02 C202.96,42.08 204.62,40.72 206.00,40.00 C209.02,38.40 212.89,34.82 213.80,32.94 C213.80,33.13 213.78,33.34 213.77,33.56 C213.60,35.60 210.07,39.97 206.37,43.24 C204.04,45.01 201.93,46.48 201.00,46.96 C199.17,47.90 197.01,49.62 195.26,51.35 L 195.26 51.35 L 206.62 73.10 C206.83,72.92 207.04,72.74 207.24,72.56 C207.52,72.30 207.73,72.11 207.94,71.93 C208.09,71.79 208.24,71.65 208.38,71.53 C210.43,69.63 212.23,68.85 213.95,69.18 C214.98,69.36 215.97,69.97 217.00,71.00 C215.99,69.99 214.98,69.38 213.95,69.18 C212.24,68.90 210.39,69.79 207.94,71.93 C207.72,72.13 207.48,72.34 207.24,72.56 C207.03,72.74 206.83,72.92 206.62,73.10 C205.32,74.24 203.87,75.46 202.83,76.28 C201.29,77.50 200.01,79.30 200.01,80.28 C199.99,83.39 202.82,83.31 206.87,80.10 C212.52,75.62 216.24,75.87 219.76,80.96 C222.87,85.46 224.75,86.06 224.98,82.67 C224.88,80.52 224.23,77.96 223.30,76.01 C222.36,74.28 221.21,73.00 220.28,73.00 C221.39,73.00 222.46,74.26 223.30,76.01 C224.27,77.81 225.00,80.09 225.00,81.90 C225.00,82.18 224.99,82.43 224.98,82.67 C225.06,84.51 224.73,86.05 223.83,86.61 C223.13,87.04 221.42,85.86 219.58,83.67 C215.21,78.47 213.01,78.83 205.92,85.92 C202.66,89.18 200.00,92.23 200.00,92.70 C200.00,93.18 202.47,95.97 205.50,98.91 C209.06,102.37 211.32,105.53 211.92,107.88 C212.43,109.87 213.33,113.35 213.93,115.62 C216.17,124.22 215.16,128.24 209.36,133.63 C207.51,135.36 206.00,137.72 206.00,138.88 C206.00,140.27 205.37,141.00 204.15,141.00 C203.14,141.00 201.50,141.90 200.50,143.00 C199.50,144.10 197.97,145.01 197.10,145.01 C196.22,145.02 194.48,146.59 193.24,148.51 C190.81,152.26 188.96,152.86 187.03,150.53 C186.27,149.63 186.07,147.85 186.43,145.41 C186.47,145.03 186.53,144.62 186.62,144.17 C186.76,143.46 186.93,142.87 187.16,142.38 C186.89,143.03 186.69,143.89 186.49,145.03 C186.47,145.16 186.45,145.29 186.43,145.41 C186.32,146.82 186.59,147.76 187.24,148.17 C189.42,149.55 190.52,149.09 192.34,146.00 C193.33,144.32 194.96,143.00 196.03,143.00 C197.09,143.00 198.69,141.88 199.59,140.50 C200.49,139.12 202.04,138.00 203.04,138.00 C204.24,138.00 205.25,136.75 206.06,134.25 C206.73,132.19 207.94,130.12 208.74,129.65 C210.95,128.35 213.10,122.32 212.45,119.24 C212.14,117.73 211.66,115.45 211.40,114.17 C211.13,112.88 207.98,108.94 204.38,105.42 C196.92,98.10 193.22,97.03 191.15,101.57 C189.86,104.41 190.34,105.76 193.44,107.97 C198.99,111.93 203.78,117.32 204.97,120.91 C206.14,124.45 206.08,125.19 204.39,127.82 C203.82,128.72 202.97,129.76 201.97,130.86 C201.23,131.97 199.95,133.15 197.74,135.08 C196.36,136.29 194.82,137.46 193.44,138.39 C191.99,139.41 190.72,140.12 189.88,140.33 C188.52,140.66 187.70,141.25 187.16,142.38 C187.67,141.18 188.43,140.68 189.84,140.33 C190.60,140.14 191.93,139.41 193.44,138.39 C196.16,136.49 199.54,133.52 201.97,130.86 C202.88,129.49 202.98,128.23 202.99,125.78 C203.00,121.91 202.44,120.43 199.85,117.49 C195.69,112.75 190.36,110.47 187.29,112.11 C185.97,112.82 185.11,113.70 184.69,114.73 C184.13,116.05 184.28,117.58 185.19,119.14 C185.31,119.39 185.44,119.64 185.59,119.89 C186.51,121.43 186.91,122.23 186.72,123.52 C186.40,124.75 185.35,126.29 183.37,129.05 C179.91,133.86 177.38,134.99 176.48,132.25 C176.46,131.64 176.48,130.91 176.52,130.04 C176.52,130.03 176.51,130.02 176.51,130.01 C176.23,129.56 176.32,128.87 176.64,128.19 C176.88,127.68 177.24,127.17 177.65,126.77 C178.02,126.31 178.46,125.84 178.97,125.33 L 182.05 122.33 L 179.95 119.66 C178.08,117.29 177.18,117.00 171.68,117.00 L 165.50 117.00 L 159.63 123.04 C156.40,126.36 152.46,129.74 150.88,130.56 C147.32,132.41 146.94,136.93 149.85,140.99 ZM 172.20 98.63 C170.17,100.16 167.90,102.11 167.18,102.96 C166.45,103.81 166.12,103.96 166.45,103.31 C166.80,102.61 166.32,102.15 165.27,102.19 C164.30,102.23 161.51,101.99 159.08,101.67 C154.79,101.09 153.05,99.82 153.02,97.25 C153.01,96.56 152.56,96.00 152.03,96.00 C151.49,96.00 150.35,94.65 149.50,93.00 C148.12,90.32 148.11,90.00 149.47,90.00 C150.31,90.00 151.00,90.68 151.00,91.50 C151.00,92.32 151.45,93.00 152.00,93.00 C152.55,93.00 153.00,93.68 153.00,94.50 C153.00,95.33 153.89,96.00 154.97,96.00 C156.31,96.00 156.75,96.48 156.36,97.50 C155.89,98.72 156.82,99.00 161.39,99.00 C165.71,99.00 167.00,98.65 167.00,97.50 C167.00,96.68 167.68,96.00 168.50,96.00 C169.32,96.00 170.00,95.32 170.00,94.50 C170.00,93.68 170.70,93.00 171.56,93.00 C172.42,93.00 172.84,92.55 172.50,92.00 C172.16,91.45 172.58,91.00 173.44,91.00 C174.59,91.00 175.00,89.96 175.00,87.00 C175.00,84.80 174.55,83.00 174.00,83.00 C173.45,83.00 173.00,82.10 173.00,81.00 C173.00,79.89 172.33,79.00 171.50,79.00 C170.68,79.00 170.00,78.55 170.00,78.00 C170.00,77.45 169.32,77.00 168.50,77.00 C167.68,77.00 167.00,76.32 167.00,75.50 C167.00,74.36 165.76,74.00 161.87,74.00 C157.85,74.00 156.33,74.47 154.86,76.16 C153.83,77.35 152.76,78.10 152.49,77.82 C151.77,77.10 155.35,73.18 157.06,72.81 C157.85,72.64 159.09,71.71 159.81,70.75 C161.83,68.04 167.01,68.52 170.49,71.75 C172.12,73.26 173.58,74.39 173.73,74.25 C174.66,73.40 175.96,74.32 176.57,76.25 C176.96,77.49 178.11,79.57 179.14,80.88 C180.16,82.20 181.00,84.14 181.00,85.21 C181.00,88.31 176.23,95.59 172.20,98.63 ZM 156.08 44.18 C156.03,44.41 156.00,44.63 156.00,44.82 C156.00,45.41 156.23,46.13 156.60,46.82 C156.96,47.53 157.49,48.21 158.17,48.76 C159.37,49.72 161.58,51.79 163.09,53.38 C165.59,56.01 166.22,56.19 170.47,55.56 C173.98,55.03 175.91,53.99 180.92,49.55 C180.22,50.21 179.47,50.91 178.68,51.67 C172.07,57.96 171.74,58.13 167.87,57.48 C164.75,56.95 163.43,57.20 161.86,58.63 C160.03,60.28 159.75,60.30 158.94,58.86 C158.45,57.98 156.84,56.47 155.38,55.51 L 152.71 53.76 L 153.38 57.95 C153.46,58.50 153.52,59.01 153.53,59.50 C152.88,58.30 151.63,56.55 150.19,54.89 C149.28,53.85 148.50,52.69 147.85,51.51 C148.46,51.56 149.21,51.87 149.58,52.25 C151.08,53.74 152.05,52.95 151.04,51.07 C150.47,50.00 150.00,48.09 150.00,46.82 C150.01,44.26 156.11,37.00 158.25,37.00 C159.00,37.00 161.14,35.88 163.00,34.50 C164.86,33.12 167.20,32.00 168.19,32.00 C168.51,32.00 168.79,31.94 169.03,31.83 C168.39,32.73 167.41,33.75 166.06,34.83 C163.89,36.57 161.72,38.00 161.23,38.00 C159.76,38.00 156.85,41.56 156.15,43.92 C156.12,44.00 156.10,44.09 156.08,44.18 ZM 164.54 92.38 C161.25,94.54 160.52,94.44 158.62,91.54 C156.86,88.86 156.42,84.00 157.93,84.00 C158.45,84.00 159.15,83.10 159.50,82.00 C160.36,79.28 162.00,79.49 164.72,82.66 C167.77,86.21 167.70,90.31 164.54,92.38 ZM 161.75 174.56 C161.74,174.71 161.73,174.87 161.72,175.02 C161.54,175.77 161.28,176.33 161.00,176.50 C160.39,176.88 160.00,175.32 160.00,172.50 C160.00,169.68 160.39,168.12 161.00,168.50 C161.43,168.77 161.80,169.93 161.94,171.31 C161.89,172.23 161.83,173.30 161.75,174.56 ZM 176.52 130.04 C176.90,130.62 177.71,130.93 178.34,130.72 C179.75,130.26 180.52,126.00 179.19,126.00 C178.68,126.00 178.13,126.31 177.65,126.77 C177.21,127.33 176.87,127.87 176.62,128.39 C176.58,128.99 176.55,129.54 176.52,130.04 ZM 217.49 207.63 C217.22,207.80 216.92,207.91 216.61,207.96 C215.84,208.04 214.94,207.71 214.45,206.91 C214.08,206.31 214.24,205.36 214.80,204.80 C216.06,203.54 218.00,204.60 218.00,206.56 C218.00,207.03 217.80,207.39 217.49,207.63 ZM 187.69 220.36 C186.76,219.43 187.89,218.00 189.56,218.00 C190.35,218.00 191.00,218.68 191.00,219.50 C191.00,221.01 188.89,221.56 187.69,220.36 ZM 146.28 47.64 C145.65,45.26 145.80,43.25 146.97,42.52 C146.24,42.98 146.07,45.42 146.28,47.64 ZM 152.37 63.61 C151.05,65.19 148.62,65.93 145.00,65.89 C147.94,65.92 150.70,64.98 152.37,63.61 ZM 117.82 88.00 C114.87,88.00 113.44,88.34 112.81,89.23 C112.93,88.84 113.00,88.54 113.00,88.42 C113.00,88.19 115.15,88.00 117.78,88.00 C117.79,88.00 117.81,88.00 117.82,88.00 ZM 117.12 49.00 C114.52,49.04 111.54,50.56 109.35,52.50 C111.46,50.43 114.28,49.00 116.98,49.00 C117.03,49.00 117.08,49.00 117.12,49.00 ZM 169.99 29.75 C169.93,28.85 169.50,28.31 168.78,28.12 C169.67,28.28 170.11,28.87 169.99,29.75 ZM 192.25 41.00 C192.36,41.00 192.49,40.99 192.63,40.97 C193.41,40.88 194.79,40.38 196.33,39.67 C196.67,39.51 197.03,39.34 197.39,39.16 C195.33,40.22 193.42,40.98 192.66,40.98 C192.48,40.98 192.30,41.00 192.12,41.03 C192.16,41.02 192.21,41.01 192.25,41.00 ZM 112.35 90.53 C112.29,91.11 112.42,91.61 112.74,92.02 C112.30,91.58 112.18,91.09 112.35,90.53 ZM 138.63 135.11 C137.90,132.43 138.23,131.86 140.39,129.70 C138.29,131.80 137.95,132.35 138.63,135.11 ZM 127.98 94.89 C127.92,94.70 127.86,94.51 127.81,94.29 C127.18,91.91 125.93,90.23 123.98,89.21 C125.94,90.23 127.18,91.90 127.82,94.29 C127.88,94.51 127.93,94.71 127.98,94.89 ZM 212.67 31.17 C211.97,31.39 211.00,32.00 209.73,33.00 C211.07,31.95 212.02,31.33 212.67,31.17 ZM 125.43 51.66 C127.69,53.13 129.74,55.16 131.38,57.64 C129.75,55.18 127.69,53.14 125.43,51.66 Z" fill="rgb(67,19,61)"/>
<path d="M 174.39 100.42 C173.40,103.02 175.18,102.23 179.21,98.30 C181.29,96.26 183.00,93.79 183.00,92.80 C183.00,91.81 183.41,91.00 183.92,91.00 C184.43,91.00 185.13,89.69 185.48,88.08 C185.83,86.48 186.77,84.92 187.56,84.61 C189.23,83.97 189.49,79.89 187.95,78.35 C187.22,77.62 187.29,76.47 188.16,74.54 C189.25,72.17 189.18,71.61 187.71,70.53 C186.77,69.84 186.00,68.68 186.00,67.95 C186.00,65.98 181.91,62.00 179.88,62.00 C177.51,62.00 176.48,60.14 178.44,59.39 C179.30,59.06 180.00,58.26 180.00,57.61 C180.00,56.96 181.35,55.63 183.00,54.66 C184.65,53.68 186.00,52.46 186.00,51.94 C186.00,51.42 186.60,51.00 187.33,51.00 C188.05,51.00 189.71,49.88 191.00,48.50 C192.29,47.12 194.09,46.00 194.99,46.00 C195.90,46.00 198.48,44.42 200.73,42.50 C202.98,40.58 205.57,39.00 206.50,39.00 C207.46,39.00 209.24,37.85 210.82,36.45 C209.34,37.83 207.56,39.17 206.00,40.00 C204.62,40.72 202.96,42.08 202.29,43.02 C201.62,43.96 199.65,45.32 197.91,46.04 C196.17,46.76 193.69,48.40 192.42,49.67 C191.14,50.95 189.51,52.02 188.80,52.04 C188.08,52.06 186.22,53.12 184.66,54.39 C181.35,57.10 181.31,60.86 184.58,62.48 C185.85,63.11 186.60,64.38 186.50,65.72 C186.41,66.93 186.92,68.14 187.62,68.41 C188.32,68.68 189.64,70.33 190.54,72.08 C191.96,74.82 192.01,75.91 190.94,79.88 C190.26,82.42 189.17,85.18 188.52,86.00 C187.87,86.82 186.59,89.54 185.67,92.02 C182.54,100.54 176.25,104.98 167.31,104.99 C165.55,105.00 163.86,105.42 163.54,105.93 C162.47,107.67 157.21,106.72 153.34,104.09 C147.67,100.25 143.88,96.08 142.88,92.59 C141.28,87.00 141.82,79.06 144.02,75.97 C146.65,72.28 144.83,71.01 140.99,73.85 L 138.18 75.93 L 135.60 73.90 C134.18,72.78 130.89,69.08 128.30,65.68 C125.71,62.28 123.30,59.28 122.95,59.00 C122.59,58.72 121.77,57.49 121.11,56.25 C120.24,54.58 119.17,54.05 116.41,54.00 C116.60,54.00 116.80,54.00 117.00,54.00 C120.39,54.00 122.00,54.41 122.00,55.28 C122.00,55.98 123.79,58.34 125.97,60.53 C128.15,62.71 129.95,64.82 129.97,65.22 C130.02,66.26 135.42,71.62 137.08,72.28 C137.86,72.59 139.10,72.65 139.83,72.42 C140.56,72.19 141.58,72.00 142.08,72.00 C143.80,72.00 143.01,69.08 141.01,68.01 C139.92,67.42 139.13,66.50 139.26,65.97 C139.39,65.43 138.38,64.42 137.00,63.72 C135.62,63.02 133.10,60.30 131.38,57.68 C129.95,55.51 128.19,53.66 126.26,52.23 C128.19,53.65 129.96,55.49 131.38,57.64 C135.23,63.47 139.14,65.84 145.00,65.89 C147.94,65.92 150.70,64.98 152.37,63.61 C153.39,62.77 154.00,61.77 154.00,60.73 C154.00,60.48 153.83,60.05 153.53,59.50 C153.52,59.01 153.46,58.50 153.38,57.95 L 152.71 53.76 L 155.38 55.51 C156.84,56.47 158.45,57.98 158.94,58.86 C159.75,60.30 160.03,60.28 161.86,58.63 C163.43,57.20 164.75,56.95 167.87,57.48 C171.74,58.13 172.07,57.96 178.68,51.67 C179.47,50.91 180.22,50.21 180.92,49.55 C181.48,49.06 182.07,48.52 182.72,47.93 C182.72,47.93 182.72,47.92 182.73,47.92 C182.73,47.92 182.74,47.91 182.74,47.91 C182.93,47.73 183.13,47.56 183.32,47.39 C181.41,49.25 179.48,51.37 177.78,53.55 C173.61,58.89 173.43,59.00 168.37,59.00 C164.71,59.00 163.05,59.44 162.64,60.50 C162.32,61.33 161.12,62.00 159.97,62.00 C157.05,62.00 148.00,68.12 148.00,70.09 C148.00,70.99 146.88,73.38 145.50,75.40 C142.73,79.49 142.33,83.92 144.17,90.38 C146.16,97.41 147.04,96.74 146.36,88.70 C145.89,83.20 146.03,81.00 146.85,81.00 C147.48,81.00 148.00,80.43 148.00,79.74 C148.00,79.05 148.94,77.89 150.10,77.17 C151.25,76.45 151.96,75.63 151.68,75.35 C150.79,74.45 154.92,71.00 156.88,71.00 C157.93,71.00 159.00,70.11 159.29,69.00 C159.72,67.34 160.65,67.00 164.80,67.00 C168.31,67.00 169.96,67.44 170.36,68.50 C170.68,69.32 171.63,70.00 172.47,70.00 C173.31,70.00 174.00,70.45 174.00,71.00 C174.00,71.55 174.64,72.00 175.43,72.00 C176.22,72.00 177.18,73.01 177.57,74.25 C177.95,75.49 179.38,77.62 180.74,78.99 C182.81,81.08 183.13,82.17 182.72,85.80 C182.44,88.28 181.33,91.09 180.12,92.38 C178.95,93.62 178.00,95.39 178.00,96.31 C178.00,97.24 177.32,98.00 176.50,98.00 C175.68,98.00 175.00,98.19 175.00,98.42 C175.00,98.65 174.73,99.55 174.39,100.42 ZM 172.20 98.63 C176.23,95.59 181.00,88.31 181.00,85.21 C181.00,84.14 180.16,82.20 179.14,80.88 C178.11,79.57 176.96,77.49 176.57,76.25 C175.96,74.32 174.66,73.40 173.73,74.25 C173.58,74.39 172.12,73.26 170.49,71.75 C167.01,68.52 161.83,68.04 159.81,70.75 C159.09,71.71 157.85,72.64 157.06,72.81 C155.35,73.18 151.77,77.10 152.49,77.82 C152.76,78.10 153.83,77.35 154.86,76.16 C154.90,76.11 154.94,76.07 154.99,76.02 C154.19,77.11 153.14,78.00 152.64,78.00 C152.13,78.00 151.12,78.79 150.39,79.75 C148.84,81.79 148.53,90.00 150.00,90.00 C150.55,90.00 151.00,90.68 151.00,91.50 C151.00,90.68 150.31,90.00 149.47,90.00 C148.11,90.00 148.12,90.32 149.50,93.00 C150.35,94.65 151.49,96.00 152.03,96.00 C152.56,96.00 153.01,96.56 153.02,97.25 C153.05,99.82 154.79,101.09 159.08,101.67 C161.51,101.99 164.30,102.23 165.27,102.19 C166.32,102.15 166.80,102.61 166.45,103.31 C166.12,103.96 166.45,103.81 167.18,102.96 C167.90,102.11 170.17,100.16 172.20,98.63 ZM 193.44 138.39 C193.56,138.31 193.68,138.23 193.80,138.15 C195.09,137.26 196.48,136.19 197.74,135.08 C198.28,134.61 198.76,134.18 199.20,133.79 C199.07,134.13 199.00,134.55 199.00,135.00 C199.00,137.33 199.63,137.44 203.32,135.75 C205.12,134.92 206.43,133.23 207.18,130.74 C207.81,128.67 208.93,126.48 209.66,125.87 C211.50,124.34 211.41,115.12 209.55,113.08 C202.42,105.32 196.03,99.82 194.66,100.28 C194.02,100.49 193.35,101.69 193.16,102.96 C192.91,104.71 194.41,106.78 199.41,111.60 C205.26,117.22 206.00,118.36 206.00,121.73 C206.00,122.33 205.90,123.02 205.72,123.76 C205.63,123.02 205.37,122.13 204.97,120.91 C203.78,117.32 198.99,111.93 193.44,107.97 C190.34,105.76 189.86,104.41 191.15,101.57 C193.22,97.03 196.92,98.10 204.38,105.42 C207.98,108.94 211.13,112.88 211.40,114.17 C211.66,115.45 212.14,117.73 212.45,119.24 C213.10,122.32 210.95,128.35 208.74,129.65 C207.94,130.12 206.73,132.19 206.06,134.25 C205.25,136.75 204.24,138.00 203.04,138.00 C202.04,138.00 200.49,139.12 199.59,140.50 C198.69,141.88 197.09,143.00 196.03,143.00 C194.96,143.00 193.33,144.32 192.34,146.00 C190.52,149.09 189.42,149.55 187.24,148.17 C186.59,147.76 186.32,146.82 186.43,145.41 L 186.44 145.40 C186.45,145.28 186.47,145.15 186.49,145.03 C186.69,143.89 186.89,143.03 187.16,142.38 C187.70,141.25 188.52,140.66 189.88,140.33 C190.72,140.12 191.99,139.41 193.44,138.39 ZM 223.30 76.01 C223.34,76.11 223.39,76.20 223.43,76.30 C224.29,78.21 224.88,80.63 224.98,82.67 C224.75,86.06 222.87,85.46 219.76,80.96 C216.24,75.87 212.52,75.62 206.87,80.10 C202.82,83.31 199.99,83.39 200.01,80.28 C200.01,79.30 201.29,77.50 202.83,76.28 C203.87,75.46 205.32,74.24 206.62,73.10 L 206.62 73.10 L 206.64 73.09 C206.84,72.91 207.04,72.74 207.24,72.56 C207.48,72.34 207.72,72.13 207.94,71.93 C207.99,71.88 208.05,71.84 208.10,71.79 C210.47,69.75 212.28,68.90 213.95,69.18 C214.98,69.38 215.99,69.99 217.00,71.00 C218.10,72.10 219.58,73.00 220.28,73.00 C221.21,73.00 222.36,74.28 223.30,76.01 ZM 138.63 135.11 C137.95,132.35 138.29,131.80 140.39,129.70 L 140.41 129.68 C141.83,128.26 143.00,126.31 143.00,125.36 C143.00,124.65 144.52,122.69 146.34,120.74 L 146.35 120.73 C147.06,120.16 147.71,119.50 148.27,118.78 C149.91,117.22 151.45,116.00 152.05,116.00 C152.88,116.00 156.00,119.45 156.00,120.35 C156.00,120.74 154.86,121.48 153.47,122.01 C152.09,122.54 150.67,123.76 150.33,124.73 C149.99,125.71 148.58,127.72 147.21,129.21 C144.93,131.68 144.76,132.45 145.34,137.96 C145.69,141.28 145.86,143.98 145.73,143.96 C145.61,143.94 144.33,143.28 142.89,142.50 C142.49,142.28 142.12,142.02 141.77,141.70 C141.67,141.57 141.57,141.45 141.48,141.32 C140.41,139.86 139.52,138.14 138.98,136.32 C138.84,135.87 138.73,135.47 138.63,135.11 ZM 169.99 29.75 C169.92,30.33 169.61,31.03 169.03,31.83 C168.79,31.94 168.51,32.00 168.19,32.00 C167.20,32.00 164.86,33.12 163.00,34.50 C161.14,35.88 159.00,37.00 158.25,37.00 C156.11,37.00 150.01,44.26 150.00,46.82 C150.00,48.09 150.47,50.00 151.04,51.07 C152.05,52.95 151.08,53.74 149.58,52.25 C149.21,51.87 148.46,51.56 147.85,51.51 C147.14,50.20 146.61,48.87 146.28,47.64 C146.07,45.42 146.24,42.98 146.97,42.52 L 146.97 42.52 L 146.97 42.52 C147.54,42.17 148.00,41.01 148.00,39.94 C148.00,38.87 148.60,38.00 149.33,38.00 C149.98,38.00 151.00,37.34 151.97,36.49 C152.32,36.18 152.67,35.85 153.00,35.50 C154.29,34.12 156.11,33.00 157.03,33.00 C157.96,33.00 160.38,31.88 162.40,30.50 C165.26,28.56 167.49,27.89 168.78,28.12 C169.50,28.31 169.93,28.85 169.99,29.75 ZM 117.82 88.00 C120.38,88.00 122.41,88.40 123.98,89.21 C124.14,89.29 124.29,89.38 124.44,89.47 C123.70,89.15 122.85,89.00 121.85,89.00 C118.44,89.00 116.80,91.75 119.35,93.17 C120.26,93.68 121.00,94.72 121.00,95.47 C121.00,96.23 122.17,98.23 123.59,99.92 C125.63,102.34 126.97,103.00 129.90,103.00 C134.32,103.00 137.36,101.10 136.50,98.86 C136.18,98.01 135.25,97.54 133.67,97.42 C134.58,97.32 135.64,97.16 136.88,96.93 C138.44,96.65 139.65,97.13 140.38,98.31 C141.30,99.79 141.07,100.48 139.14,102.06 C136.05,104.60 126.92,104.77 124.48,102.34 C123.57,101.43 121.80,99.05 120.54,97.06 C119.11,94.81 117.40,93.38 115.98,93.27 C115.49,93.24 115.04,93.17 114.65,93.07 C114.55,93.02 114.45,92.98 114.36,92.95 C113.62,92.66 113.08,92.36 112.74,92.02 C112.42,91.61 112.29,91.11 112.35,90.53 C112.56,89.99 112.70,89.58 112.81,89.23 C113.44,88.34 114.87,88.00 117.82,88.00 ZM 206.50 77.00 L 204.50 79.50 L 206.58 77.75 C207.83,76.70 210.31,76.00 212.83,76.00 C217.45,76.00 217.99,74.99 215.00,72.00 C212.54,69.54 211.14,69.46 210.29,71.75 C209.94,72.71 209.39,73.72 209.07,74.00 C208.76,74.28 207.60,75.62 206.50,77.00 ZM 145.00 125.04 C145.00,127.41 146.30,127.56 148.43,125.43 C150.11,123.74 150.38,122.71 149.37,121.70 C148.23,120.56 145.00,123.03 145.00,125.04 ZM 178.34 130.72 C177.71,130.93 176.90,130.62 176.52,130.04 C176.53,129.99 176.53,129.94 176.53,129.90 C176.56,129.43 176.59,128.93 176.62,128.39 C176.87,127.87 177.21,127.33 177.65,126.77 C178.13,126.31 178.68,126.00 179.19,126.00 C180.52,126.00 179.75,130.26 178.34,130.72 ZM 150.65 38.46 C149.96,40.27 150.08,40.30 153.43,39.02 C154.85,38.49 156.00,37.29 156.00,36.37 C156.00,34.80 155.87,34.80 154.17,36.35 C153.16,37.26 152.09,37.76 151.79,37.46 C151.49,37.16 150.98,37.61 150.65,38.46 ZM 221.04 79.25 C221.84,81.35 222.42,81.95 222.68,80.94 C222.90,80.08 222.47,78.20 221.72,76.76 C220.73,74.86 219.98,74.40 218.93,75.06 C218.10,75.59 217.98,75.98 218.65,75.98 C219.29,75.99 220.36,77.46 221.04,79.25 ZM 157.00 104.51 C157.00,106.34 159.37,106.46 160.82,104.71 C161.64,103.73 161.32,103.38 159.45,103.22 C157.86,103.09 157.00,103.54 157.00,104.51 ZM 189.00 144.12 C189.00,144.61 189.63,145.00 190.39,145.00 C191.89,145.00 193.24,142.57 192.27,141.61 C191.57,140.90 189.00,142.88 189.00,144.12 ZM 159.15 35.05 C158.93,35.71 159.29,36.07 159.95,35.85 C160.61,35.63 161.12,35.12 161.07,34.72 C160.95,33.53 159.58,33.76 159.15,35.05 ZM 203.82 128.65 C202.59,130.98 201.09,132.88 200.06,132.99 C200.93,132.17 201.54,131.51 201.97,130.86 C202.68,130.08 203.31,129.34 203.82,128.65 ZM 155.61 75.42 C156.54,74.63 157.63,74.24 159.42,74.09 C157.88,74.34 156.48,74.79 155.61,75.42 ZM 165.78 74.29 C166.66,74.52 167.00,74.90 167.00,75.50 C167.00,74.97 166.53,74.57 165.78,74.29 ZM 127.98 94.89 C128.15,95.46 128.30,95.90 128.48,96.24 C128.27,95.85 128.09,95.35 127.91,94.69 C127.68,93.86 127.43,93.13 127.16,92.50 C127.42,93.05 127.64,93.65 127.81,94.29 C127.86,94.51 127.92,94.70 127.98,94.89 ZM 129.36 97.09 C129.60,97.20 129.88,97.27 130.22,97.31 C130.28,97.32 130.35,97.34 130.41,97.36 C129.99,97.31 129.64,97.23 129.36,97.09 ZM 191.91 41.10 C191.98,41.07 192.05,41.05 192.12,41.03 C192.22,41.01 192.33,41.00 192.43,40.99 C192.27,41.01 192.10,41.04 191.91,41.10 Z" fill="rgb(91,18,69)"/>
<path d="M 212.67 31.17 C213.53,30.95 213.84,31.53 213.80,32.94 C213.36,33.85 212.22,35.16 210.82,36.45 C209.24,37.85 207.46,39.00 206.50,39.00 C205.57,39.00 202.98,40.58 200.73,42.50 C198.48,44.42 195.90,46.00 194.99,46.00 C194.09,46.00 192.29,47.12 191.00,48.50 C189.71,49.88 188.05,51.00 187.33,51.00 C186.60,51.00 186.00,51.42 186.00,51.94 C186.00,52.46 184.65,53.68 183.00,54.66 C181.35,55.63 180.00,56.96 180.00,57.61 C180.00,58.26 179.30,59.06 178.44,59.39 C176.48,60.14 177.51,62.00 179.88,62.00 C181.91,62.00 186.00,65.98 186.00,67.95 C186.00,68.68 186.77,69.84 187.71,70.53 C189.18,71.61 189.25,72.17 188.16,74.54 C187.29,76.47 187.22,77.62 187.95,78.35 C189.49,79.89 189.23,83.97 187.56,84.61 C186.77,84.92 185.83,86.48 185.48,88.08 C185.13,89.69 184.43,91.00 183.92,91.00 C183.41,91.00 183.00,91.81 183.00,92.80 C183.00,93.79 181.29,96.26 179.21,98.30 C175.18,102.23 173.40,103.02 174.39,100.42 C174.73,99.55 175.00,98.65 175.00,98.42 C175.00,98.19 175.68,98.00 176.50,98.00 C177.32,98.00 178.00,97.24 178.00,96.31 C178.00,95.39 178.95,93.62 180.12,92.38 C181.33,91.09 182.44,88.28 182.72,85.80 C183.13,82.17 182.81,81.08 180.74,78.99 C179.38,77.62 177.95,75.49 177.57,74.25 C177.18,73.01 176.22,72.00 175.43,72.00 C174.64,72.00 174.00,71.55 174.00,71.00 C174.00,70.45 173.31,70.00 172.47,70.00 C171.63,70.00 170.68,69.32 170.36,68.50 C169.96,67.44 168.31,67.00 164.80,67.00 C160.65,67.00 159.72,67.34 159.29,69.00 C159.00,70.11 157.93,71.00 156.88,71.00 C154.92,71.00 150.79,74.45 151.68,75.35 C151.96,75.63 151.25,76.45 150.10,77.17 C148.94,77.89 148.00,79.05 148.00,79.74 C148.00,80.43 147.48,81.00 146.85,81.00 C146.03,81.00 145.89,83.20 146.36,88.70 C147.04,96.74 146.16,97.41 144.17,90.38 C142.33,83.92 142.73,79.49 145.50,75.40 C146.88,73.38 148.00,70.99 148.00,70.09 C148.00,68.12 157.05,62.00 159.97,62.00 C161.12,62.00 162.32,61.33 162.64,60.50 C163.05,59.44 164.71,59.00 168.37,59.00 C173.43,59.00 173.61,58.89 177.78,53.55 C179.48,51.37 181.41,49.25 183.32,47.39 L 183.32 47.39 C186.90,44.19 190.38,41.65 191.91,41.10 C192.10,41.04 192.27,41.01 192.43,40.99 C192.51,40.99 192.58,40.98 192.66,40.98 C193.42,40.98 195.33,40.22 197.39,39.16 C198.97,38.39 200.71,37.43 202.40,36.40 C204.02,35.58 205.37,35.02 205.84,35.02 C206.58,35.01 208.33,34.10 209.73,33.00 C211.00,32.00 211.97,31.39 212.67,31.17 ZM 117.12 49.00 C119.97,49.03 122.84,49.98 125.43,51.66 C125.71,51.84 125.98,52.03 126.26,52.23 C128.19,53.66 129.95,55.51 131.38,57.68 C133.10,60.30 135.62,63.02 137.00,63.72 C138.38,64.42 139.39,65.43 139.26,65.97 C139.13,66.50 139.92,67.42 141.01,68.01 C143.01,69.08 143.80,72.00 142.08,72.00 C141.58,72.00 140.56,72.19 139.83,72.42 C139.10,72.65 137.86,72.59 137.08,72.28 C135.42,71.62 130.02,66.26 129.97,65.22 C129.95,64.82 128.15,62.71 125.97,60.53 C123.79,58.34 122.00,55.98 122.00,55.28 C122.00,54.41 120.39,54.00 117.00,54.00 C116.80,54.00 116.60,54.00 116.41,54.00 C116.27,54.00 116.12,54.00 115.96,54.00 C113.25,54.00 112.00,54.44 112.00,55.38 C112.00,57.23 107.30,60.30 106.49,58.98 C106.29,58.66 106.18,58.31 106.15,57.94 C106.56,55.99 107.75,54.06 109.35,52.50 C111.54,50.56 114.52,49.04 117.12,49.00 ZM 203.82 128.65 C204.03,128.36 204.22,128.09 204.39,127.82 C205.49,126.10 205.90,125.18 205.72,123.76 C205.90,123.02 206.00,122.33 206.00,121.73 C206.00,118.36 205.26,117.22 199.41,111.60 C194.41,106.78 192.91,104.71 193.16,102.96 C193.35,101.69 194.02,100.49 194.66,100.28 C196.03,99.82 202.42,105.32 209.55,113.08 C211.41,115.12 211.50,124.34 209.66,125.87 C208.93,126.48 207.81,128.67 207.18,130.74 C206.43,133.23 205.12,134.92 203.32,135.75 C199.63,137.44 199.00,137.33 199.00,135.00 C199.00,134.55 199.07,134.13 199.20,133.79 C199.51,133.51 199.80,133.24 200.06,132.99 C201.09,132.88 202.59,130.98 203.82,128.65 ZM 129.36 97.09 C129.64,97.23 129.99,97.31 130.41,97.36 C131.22,97.55 132.28,97.56 133.67,97.42 C135.25,97.54 136.18,98.01 136.50,98.86 C137.36,101.10 134.32,103.00 129.90,103.00 C126.97,103.00 125.63,102.34 123.59,99.92 C122.17,98.23 121.00,96.23 121.00,95.47 C121.00,94.72 120.26,93.68 119.35,93.17 C116.80,91.75 118.44,89.00 121.85,89.00 C122.85,89.00 123.70,89.15 124.44,89.47 C125.63,90.20 126.53,91.21 127.16,92.50 C127.43,93.13 127.68,93.86 127.91,94.69 C128.09,95.35 128.27,95.85 128.48,96.24 C128.70,96.65 128.97,96.92 129.36,97.09 ZM 206.50 77.00 C207.60,75.62 208.76,74.28 209.07,74.00 C209.39,73.72 209.94,72.71 210.29,71.75 C211.14,69.46 212.54,69.54 215.00,72.00 C217.99,74.99 217.45,76.00 212.83,76.00 C210.31,76.00 207.83,76.70 206.58,77.75 L 204.50 79.50 ZM 44.05 198.56 C42.50,196.69 43.35,194.00 45.50,194.00 C47.73,194.00 48.54,196.89 46.80,198.63 C45.50,199.92 45.18,199.92 44.05,198.56 ZM 145.00 125.04 C145.00,123.03 148.23,120.56 149.37,121.70 C150.38,122.71 150.11,123.74 148.43,125.43 C146.30,127.56 145.00,127.41 145.00,125.04 ZM 150.65 38.46 C150.98,37.61 151.49,37.16 151.79,37.46 C152.09,37.76 153.16,37.26 154.17,36.35 C155.87,34.80 156.00,34.80 156.00,36.37 C156.00,37.29 154.85,38.49 153.43,39.02 C150.08,40.30 149.96,40.27 150.65,38.46 ZM 221.04 79.25 C220.36,77.46 219.29,75.99 218.65,75.98 C217.98,75.98 218.10,75.59 218.93,75.06 C219.98,74.40 220.73,74.86 221.72,76.76 C222.47,78.20 222.90,80.08 222.68,80.94 C222.42,81.95 221.84,81.35 221.04,79.25 ZM 157.00 104.51 C157.00,103.54 157.86,103.09 159.45,103.22 C161.32,103.38 161.64,103.73 160.82,104.71 C159.37,106.46 157.00,106.34 157.00,104.51 ZM 189.00 144.12 C189.00,142.88 191.57,140.90 192.27,141.61 C193.24,142.57 191.89,145.00 190.39,145.00 C189.63,145.00 189.00,144.61 189.00,144.12 ZM 178.00 198.50 C178.00,197.73 178.37,197.26 179.01,197.16 C179.05,197.17 179.10,197.17 179.14,197.18 C180.03,197.31 180.68,197.73 181.22,198.67 C181.08,199.16 180.52,199.62 179.55,199.82 C178.65,200.01 178.00,199.46 178.00,198.50 ZM 132.23 222.81 C132.85,220.96 135.00,220.65 135.00,222.42 C135.00,223.29 134.29,224.00 133.42,224.00 C132.55,224.00 132.01,223.47 132.23,222.81 ZM 159.15 35.05 C159.58,33.76 160.95,33.53 161.07,34.72 C161.12,35.12 160.61,35.63 159.95,35.85 C159.29,36.07 158.93,35.71 159.15,35.05 Z" fill="rgb(124,13,75)"/>
<path d="M 98.25 131.71 C98.49,131.62 98.70,131.50 98.89,131.35 C97.94,133.38 96.31,134.70 93.70,135.81 C93.22,136.01 92.66,136.19 92.05,136.33 C92.89,135.99 93.56,135.46 94.30,134.68 C95.51,133.40 97.29,132.06 98.25,131.71 ZM 79.06 135.47 C80.15,136.06 82.63,136.60 85.09,136.81 C82.67,136.66 80.41,136.21 79.06,135.47 ZM 99.31 119.15 C99.51,119.53 99.66,119.96 99.76,120.47 C99.65,119.95 99.51,119.53 99.31,119.15 Z" fill="rgb(223,169,83)"/>
<path d="M 79.06 135.47 C77.72,134.73 75.36,132.78 73.81,131.12 C71.37,128.50 71.00,127.31 71.00,122.05 C71.00,119.51 71.25,117.36 71.62,116.46 C71.91,116.09 72.35,116.00 73.00,116.00 C74.10,116.00 75.00,115.62 75.00,115.15 C75.00,114.69 75.84,113.34 76.87,112.15 C77.88,110.98 79.96,110.30 82.33,110.04 C82.73,110.03 83.15,110.03 83.58,110.03 C86.97,110.05 89.62,110.41 91.40,111.06 C92.97,111.70 94.00,112.58 94.00,113.67 C94.00,114.20 95.35,115.62 97.00,116.84 C98.16,117.70 98.88,118.32 99.31,119.15 L 99.32 119.16 C99.33,119.18 99.34,119.20 99.35,119.23 C99.53,119.59 99.66,119.99 99.76,120.47 L 99.76 120.47 C99.95,121.47 99.99,122.80 99.98,124.78 C99.97,127.61 99.65,129.71 98.89,131.35 C98.70,131.50 98.49,131.62 98.25,131.71 C97.29,132.06 95.51,133.40 94.30,134.68 C93.56,135.46 92.89,135.99 92.05,136.33 C90.06,136.80 87.49,136.96 85.09,136.81 C82.63,136.60 80.15,136.06 79.06,135.47 ZM 84.00 133.50 C84.00,136.00 87.65,135.18 89.54,132.25 C90.52,130.74 91.92,129.14 92.66,128.70 C94.50,127.60 94.38,122.08 92.50,121.36 C91.68,121.05 91.00,119.93 91.00,118.89 C91.00,117.85 90.55,117.00 90.00,117.00 C89.45,117.00 89.00,116.32 89.00,115.50 C89.00,114.39 87.83,114.00 84.50,114.00 C81.17,114.00 80.00,114.39 80.00,115.50 C80.00,116.32 79.32,117.00 78.50,117.00 C77.33,117.00 77.00,118.33 77.00,123.00 C77.00,127.67 77.33,129.00 78.50,129.00 C79.32,129.00 80.00,129.68 80.00,130.50 C80.00,131.33 80.89,132.00 82.00,132.00 C83.11,132.00 84.00,132.67 84.00,133.50 Z" fill="rgb(247,168,37)"/>
<path d="M 164.54 92.38 C167.70,90.31 167.77,86.21 164.72,82.66 C162.11,79.62 160.50,79.30 159.61,81.69 C159.73,80.94 158.89,80.85 157.52,81.98 C156.69,82.68 156.00,84.76 156.00,86.62 C156.00,88.48 155.52,90.00 154.94,90.00 C154.36,90.00 154.21,90.56 154.61,91.25 C155.01,91.94 154.37,91.64 153.17,90.60 C151.69,89.30 151.00,87.55 151.02,85.10 C151.03,80.58 151.52,79.89 156.75,76.99 C160.90,74.69 161.09,74.67 164.62,76.36 C166.62,77.31 168.49,77.84 168.79,77.54 C169.09,77.24 168.81,77.00 168.17,77.00 C167.52,77.00 167.00,76.32 167.00,75.50 C167.00,76.32 167.68,77.00 168.50,77.00 C169.32,77.00 170.00,77.45 170.00,78.00 C170.00,78.55 170.68,79.00 171.50,79.00 C171.88,79.00 172.22,79.18 172.48,79.49 C172.12,79.16 171.56,79.02 170.75,79.03 C168.77,79.06 168.71,79.18 170.21,80.06 C171.15,80.61 172.22,82.65 172.59,84.61 C173.11,87.38 172.78,88.80 171.13,91.04 C169.96,92.62 169.05,94.50 169.12,95.21 C169.18,95.92 169.44,95.71 169.69,94.75 C169.78,94.39 169.96,94.06 170.19,93.78 C170.07,94.00 170.00,94.24 170.00,94.50 C170.00,95.32 169.32,96.00 168.50,96.00 C167.68,96.00 167.00,96.68 167.00,97.50 C167.00,96.68 166.66,96.05 166.25,96.12 C163.99,96.48 161.96,95.87 162.50,95.00 C162.84,94.45 162.47,94.00 161.67,94.00 C161.47,94.00 161.26,93.95 161.04,93.85 C161.87,93.98 162.88,93.47 164.54,92.38 ZM 159.47 82.11 C159.12,83.11 158.49,83.93 158.00,84.00 C158.17,83.74 158.35,83.50 158.55,83.31 C159.00,82.86 159.30,82.44 159.47,82.11 ZM 157.03 86.51 C157.11,87.75 157.46,89.25 158.05,90.51 C157.43,89.33 157.00,88.03 157.00,86.96 C157.00,86.82 157.01,86.67 157.03,86.51 Z" fill="rgb(250,223,175)"/>
<path d="M 84.00 133.50 C84.00,132.67 83.11,132.00 82.00,132.00 C80.89,132.00 80.00,131.33 80.00,130.50 C80.00,129.68 79.32,129.00 78.50,129.00 C77.33,129.00 77.00,127.67 77.00,123.00 C77.00,118.33 77.33,117.00 78.50,117.00 C79.32,117.00 80.00,116.32 80.00,115.50 C80.00,114.39 81.17,114.00 84.50,114.00 C87.83,114.00 89.00,114.39 89.00,115.50 C89.00,116.32 89.45,117.00 90.00,117.00 C90.55,117.00 91.00,117.85 91.00,118.89 C91.00,119.93 91.68,121.05 92.50,121.36 C94.38,122.08 94.50,127.60 92.66,128.70 C91.92,129.14 90.52,130.74 89.54,132.25 C87.65,135.18 84.00,136.00 84.00,133.50 Z" fill="rgb(252,200,42)"/>
<path d="M 156.36 97.50 C156.75,96.48 156.31,96.00 154.97,96.00 C153.89,96.00 153.00,95.33 153.00,94.50 C153.00,93.68 152.55,93.00 152.00,93.00 C151.45,93.00 151.00,92.32 151.00,91.50 C151.00,90.68 150.55,90.00 150.00,90.00 C148.53,90.00 148.84,81.79 150.39,79.75 C151.12,78.79 152.13,78.00 152.64,78.00 C153.14,78.00 154.21,77.10 155.00,76.00 C156.85,73.43 167.00,73.01 167.00,75.50 C167.00,76.32 167.52,77.00 168.17,77.00 C168.81,77.00 169.09,77.24 168.79,77.54 C168.49,77.84 166.62,77.31 164.62,76.36 C161.09,74.67 160.90,74.69 156.75,76.99 C151.52,79.89 151.03,80.58 151.02,85.10 C151.00,87.55 151.69,89.30 153.17,90.60 C154.37,91.64 155.01,91.94 154.61,91.25 C154.21,90.56 154.36,90.00 154.94,90.00 C155.52,90.00 156.00,88.48 156.00,86.62 C156.00,84.76 156.69,82.68 157.52,81.98 C159.60,80.25 160.47,81.38 158.55,83.31 C157.70,84.16 157.00,85.81 157.00,86.96 C157.00,89.72 159.84,94.00 161.67,94.00 C162.47,94.00 162.84,94.45 162.50,95.00 C161.96,95.87 163.99,96.48 166.25,96.12 C166.66,96.05 167.00,96.68 167.00,97.50 C167.00,98.65 165.71,99.00 161.39,99.00 C156.82,99.00 155.89,98.72 156.36,97.50 ZM 169.12 95.21 C169.05,94.50 169.96,92.62 171.13,91.04 C172.78,88.80 173.11,87.38 172.59,84.61 C172.22,82.65 171.15,80.61 170.21,80.06 C168.71,79.18 168.77,79.06 170.75,79.03 C172.34,79.01 173.00,79.58 173.00,81.00 C173.00,82.10 173.45,83.00 174.00,83.00 C174.55,83.00 175.00,84.80 175.00,87.00 C175.00,89.96 174.59,91.00 173.44,91.00 C172.58,91.00 172.16,91.45 172.50,92.00 C172.84,92.55 172.45,93.00 171.63,93.00 C170.82,93.00 169.94,93.79 169.69,94.75 C169.44,95.71 169.18,95.92 169.12,95.21 Z" fill="rgb(251,220,189)"/>
</g>
</svg>